<svg width="49" height="36" viewBox="0 0 49 36" fill="none" xmlns="http://www.w3.org/2000/svg">
<path fill-rule="evenodd" clip-rule="evenodd" d="M24.3333 1C20.7025 1 17.0519 2.38477 14.2835 5.15308C12.2248 7.21183 10.9767 9.76574 10.4475 12.4289C5.07527 13.4711 1 18.1627 1 23.8261C1 30.2513 6.24138 35.4928 12.6667 35.4928H37.5217C43.1157 35.4928 47.6667 30.9418 47.6667 25.3478C47.6667 20.0683 43.5995 15.7705 38.4411 15.298C38.465 11.626 37.1607 7.9465 34.3673 5.15308C31.6014 2.38702 27.9642 1 24.3333 1ZM24.3333 4.04348C27.1933 4.04348 30.0254 5.10683 32.2115 7.29303C34.7378 9.81925 35.8068 13.2515 35.4135 16.5344C35.3591 16.9671 35.4928 17.4023 35.7808 17.7297C36.0688 18.0571 36.4833 18.2452 36.9194 18.2464H37.5217C41.4823 18.2464 44.6232 21.3873 44.6232 25.3478C44.6232 29.3084 41.4823 32.4493 37.5217 32.4493H12.6667C7.88628 32.4493 4.04348 28.6065 4.04348 23.8261C4.04348 19.3117 7.47678 15.6338 11.8741 15.2346C12.5845 15.1654 13.1514 14.6117 13.2373 13.9031C13.5173 11.4911 14.5846 9.14771 16.4393 7.29303C18.6233 5.10909 21.4734 4.04348 24.3333 4.04348ZM23.303 13.5702C23.5578 13.3372 23.826 13.1739 24.3333 13.1739C24.8407 13.1739 25.0622 13.2942 25.3637 13.5702L30.9434 18.6427C31.5283 19.1833 31.638 20.211 31.0385 20.7985C30.4696 21.3559 29.4729 21.4284 28.8827 20.8936L25.8551 18.1354V27.8841C25.8551 28.7245 25.1739 29.4058 24.3333 29.4058C23.4928 29.4058 22.8116 28.7245 22.8116 27.8841V18.1354L19.7839 20.8936C19.1938 21.4284 18.1661 21.3859 17.6281 20.7985C17.0903 20.211 17.0791 19.2406 17.7233 18.6427L23.303 13.5702Z" fill="#818EA6"/>
<path d="M14.2835 5.15308L13.93 4.79952L13.93 4.79952L14.2835 5.15308ZM10.4475 12.4289L10.5427 12.9197L10.8724 12.8558L10.9379 12.5263L10.4475 12.4289ZM38.4411 15.298L37.9411 15.2948L37.9382 15.754L38.3955 15.7959L38.4411 15.298ZM34.3673 5.15308L34.0137 5.50662L34.0137 5.50664L34.3673 5.15308ZM32.2115 7.29303L31.8579 7.64657L31.8579 7.64658L32.2115 7.29303ZM35.4135 16.5344L35.9096 16.5969L35.91 16.5939L35.4135 16.5344ZM35.7808 17.7297L36.1562 17.3994V17.3994L35.7808 17.7297ZM36.9194 18.2464L36.918 18.7464H36.9194V18.2464ZM11.8741 15.2346L11.9193 15.7326L11.9226 15.7323L11.8741 15.2346ZM13.2373 13.9031L13.7337 13.9633L13.734 13.9608L13.2373 13.9031ZM16.4393 7.29303L16.0858 6.93947L16.0858 6.93947L16.4393 7.29303ZM23.303 13.5702L23.6394 13.9402L23.6405 13.9391L23.303 13.5702ZM25.3637 13.5702L25.026 13.9389L25.0273 13.9402L25.3637 13.5702ZM30.9434 18.6427L31.2828 18.2755L31.2797 18.2727L30.9434 18.6427ZM31.0385 20.7985L31.3885 21.1556L31.3885 21.1556L31.0385 20.7985ZM28.8827 20.8936L28.546 21.2632L28.547 21.2641L28.8827 20.8936ZM25.8551 18.1354L26.1918 17.7658L25.3551 17.0035V18.1354H25.8551ZM22.8116 18.1354H23.3116V17.0035L22.4749 17.7658L22.8116 18.1354ZM19.7839 20.8936L20.1197 21.2641L20.1207 21.2632L19.7839 20.8936ZM17.6281 20.7985L17.2594 21.1361L17.2594 21.1361L17.6281 20.7985ZM17.7233 18.6427L17.3869 18.2727L17.3832 18.2762L17.7233 18.6427ZM14.6371 5.50664C17.3073 2.83641 20.8288 1.5 24.3333 1.5V0.5C20.5761 0.5 16.7964 1.93312 13.93 4.79952L14.6371 5.50664ZM10.9379 12.5263C11.4497 9.95082 12.6547 7.48895 14.6371 5.50663L13.93 4.79952C11.7948 6.9347 10.5037 9.58066 9.95705 12.3314L10.9379 12.5263ZM1.5 23.8261C1.5 18.4102 5.39755 13.9179 10.5427 12.9197L10.3522 11.938C4.75299 13.0243 0.5 17.9153 0.5 23.8261H1.5ZM12.6667 34.9928C6.51752 34.9928 1.5 29.9752 1.5 23.8261H0.5C0.5 30.5275 5.96523 35.9928 12.6667 35.9928V34.9928ZM37.5217 34.9928H12.6667V35.9928H37.5217V34.9928ZM47.1667 25.3478C47.1667 30.6657 42.8396 34.9928 37.5217 34.9928V35.9928C43.3918 35.9928 48.1667 31.2179 48.1667 25.3478H47.1667ZM38.3955 15.7959C43.3033 16.2454 47.1667 20.3336 47.1667 25.3478H48.1667C48.1667 19.8031 43.8957 15.2955 38.4867 14.8001L38.3955 15.7959ZM34.0137 5.50664C36.7034 8.19628 37.9642 11.7429 37.9411 15.2948L38.9411 15.3013C38.9657 11.5091 37.6181 7.69672 34.7208 4.79952L34.0137 5.50664ZM24.3333 1.5C27.8372 1.5 31.3455 2.83823 34.0137 5.50662L34.7208 4.79954C31.8573 1.93582 28.0912 0.5 24.3333 0.5V1.5ZM32.565 6.93948C30.2802 4.65453 27.3187 3.54348 24.3333 3.54348V4.54348C27.0679 4.54348 29.7706 5.55914 31.8579 7.64657L32.565 6.93948ZM35.91 16.5939C36.3208 13.1647 35.204 9.57834 32.565 6.93947L31.8579 7.64658C34.2716 10.0602 35.2928 13.3384 34.9171 16.475L35.91 16.5939ZM36.1562 17.3994C35.9628 17.1796 35.873 16.8874 35.9096 16.5969L34.9174 16.472C34.8451 17.0467 35.0227 17.6249 35.4053 18.0599L36.1562 17.3994ZM36.9207 17.7464C36.628 17.7456 36.3496 17.6193 36.1562 17.3994L35.4053 18.0599C35.7879 18.4949 36.3387 18.7448 36.918 18.7464L36.9207 17.7464ZM37.5217 17.7464H36.9194V18.7464H37.5217V17.7464ZM45.1232 25.3478C45.1232 21.1112 41.7584 17.7464 37.5217 17.7464V18.7464C41.2061 18.7464 44.1232 21.6635 44.1232 25.3478H45.1232ZM37.5217 32.9493C41.7584 32.9493 45.1232 29.5845 45.1232 25.3478H44.1232C44.1232 29.0322 41.2061 31.9493 37.5217 31.9493V32.9493ZM12.6667 32.9493H37.5217V31.9493H12.6667V32.9493ZM3.54348 23.8261C3.54348 28.8826 7.61013 32.9493 12.6667 32.9493V31.9493C8.16242 31.9493 4.54348 28.3304 4.54348 23.8261H3.54348ZM11.8289 14.7367C7.17632 15.159 3.54348 19.0507 3.54348 23.8261H4.54348C4.54348 19.5726 7.77723 16.1086 11.9193 15.7326L11.8289 14.7367ZM12.741 13.8429C12.6833 14.3187 12.3026 14.6905 11.8256 14.737L11.9226 15.7323C12.8664 15.6403 13.6195 14.9047 13.7337 13.9633L12.741 13.8429ZM16.0858 6.93947C14.1486 8.87659 13.0332 11.3254 12.7407 13.8454L13.734 13.9608C14.0014 11.6568 15.0206 9.41883 16.7929 7.64658L16.0858 6.93947ZM24.3333 3.54348C21.3487 3.54348 18.369 4.65634 16.0858 6.93947L16.7929 7.64658C18.8777 5.56184 21.5981 4.54348 24.3333 4.54348V3.54348ZM24.3333 12.6739C24.0237 12.6739 23.7606 12.7242 23.5256 12.8255C23.2924 12.926 23.1146 13.0649 22.9655 13.2013L23.6405 13.9391C23.7462 13.8425 23.8299 13.7833 23.9213 13.7439C24.0109 13.7053 24.1356 13.6739 24.3333 13.6739V12.6739ZM25.7013 13.2014C25.5343 13.0485 25.3527 12.9038 25.1164 12.8064C24.8789 12.7083 24.6257 12.6739 24.3333 12.6739V13.6739C24.5483 13.6739 24.6596 13.6996 24.735 13.7308C24.8117 13.7624 24.8916 13.8159 25.026 13.9389L25.7013 13.2014ZM31.2797 18.2727L25.7 13.2002L25.0273 13.9402L30.607 19.0126L31.2797 18.2727ZM31.3885 21.1556C32.2257 20.3352 32.0414 18.9768 31.2828 18.2755L30.604 19.0098C31.0151 19.3899 31.0504 20.0868 30.6886 20.4413L31.3885 21.1556ZM28.547 21.2641C29.3556 21.9969 30.6529 21.8763 31.3885 21.1556L30.6886 20.4413C30.2863 20.8355 29.5902 20.8599 29.2185 20.5231L28.547 21.2641ZM25.5184 18.505L28.546 21.2632L29.2194 20.5239L26.1918 17.7658L25.5184 18.505ZM26.3551 27.8841V18.1354H25.3551V27.8841H26.3551ZM24.3333 29.9058C25.4501 29.9058 26.3551 29.0006 26.3551 27.8841H25.3551C25.3551 28.4484 24.8978 28.9058 24.3333 28.9058V29.9058ZM22.3116 27.8841C22.3116 29.0006 23.2166 29.9058 24.3333 29.9058V28.9058C23.7689 28.9058 23.3116 28.4484 23.3116 27.8841H22.3116ZM22.3116 18.1354V27.8841H23.3116V18.1354H22.3116ZM20.1207 21.2632L23.1483 18.505L22.4749 17.7658L19.4472 20.5239L20.1207 21.2632ZM17.2594 21.1361C17.9853 21.9288 19.328 21.9815 20.1197 21.2641L19.4482 20.5231C19.0595 20.8753 18.3469 20.843 17.9969 20.4608L17.2594 21.1361ZM17.3832 18.2762C16.528 19.0698 16.5447 20.3556 17.2594 21.1361L17.9969 20.4608C17.6358 20.0664 17.6301 19.4114 18.0634 19.0091L17.3832 18.2762ZM22.9667 13.2002L17.387 18.2727L18.0596 19.0126L23.6394 13.9402L22.9667 13.2002Z" fill="#F6F6FA"/>
</svg>
