<svg xmlns="http://www.w3.org/2000/svg" xmlns:xlink="http://www.w3.org/1999/xlink" width="50" height="50" viewBox="0 0 50 50">
    <defs>
        <linearGradient id="a" x1="27.161%" x2="75.344%" y1="94.222%" y2="7.191%">
            <stop offset="0%" stop-color="#029889"/>
            <stop offset="100%" stop-color="#30AA9F"/>
        </linearGradient>
        <path id="b" d="M22.089 2.243c-.518 0-1.216.23-2.102.839-1.62 1.113-3.602 1.604-5.414 1.604-1.473 0-2.833-.324-3.793-.9-.476-.286-.474-.38-.198-.38.554 0 2.216.384 3.342.384.554 0 .978-.093 1.077-.371.46-1.285-1.32-1.699-3.18-2.451C10.46.416 8.798 0 7.215 0c-.66 0-1.312.072-1.917.237C2.551.987.566 1.551 0 1.734v7.21c1.131-.416 2.442-.815 3.187-.815 1.369 0 6.906 1.766 10.042 1.766.439 0 .832-.035 1.16-.114 2.66-.642 7.28-4.405 8.534-5.69.602-.616.364-1.848-.834-1.848z"/>
    </defs>
    <g fill="none" fill-rule="evenodd">
        <circle cx="25" cy="25" r="25" fill="url(#a)"/>
        <path fill="#FFF" fill-rule="nonzero" d="M20.2 27.512c.656 0 1.379.064 2.039.185V25.72h4.808v3.528c.566.208.979.432 1.366.714.735.534 1.14 1.235 1.164 2.003a7.514 7.514 0 0 0 2.536-1.106c.268-.184.59-.346.78-.484v-5.491L24.62 15.64l-8.416 9.298v3.323c.566-.143 1.081-.297 1.679-.46a8.853 8.853 0 0 1 2.315-.29z"/>
        <path fill="#FFF" fill-rule="nonzero" d="M24.658 13.386l9.35 10.449h2.133L24.64 11l-4.757 5.24v-2.116h-3.488v5.97l-3.355 3.74h2.163z"/>
        <g transform="translate(13 29.02)">
            <mask id="c" fill="#fff">
                <use xlink:href="#b"/>
            </mask>
            <use fill="#FFF" fill-rule="nonzero" xlink:href="#b"/>
            <path fill="#AFDDD9" d="M-.693 8.774c5.764.792 10.32.713 13.668-.239 3.97-1.129 9.556-5.025 10.221-6.16 1.149-1.96 1.516-1.525.778 1.479-.375 1.527-1.713 5.254-4.015 11.181H2.457l-3.15-6.261z" mask="url(#c)" transform="rotate(1 11.832 8.11)"/>
        </g>
    </g>
</svg>
