<svg width="70" height="70" viewBox="0 0 70 70" fill="none" xmlns="http://www.w3.org/2000/svg">
<path fill-rule="evenodd" clip-rule="evenodd" d="M35 70C54.33 70 70 54.33 70 35C70 15.67 54.33 0 35 0C15.67 0 0 15.67 0 35C0 54.33 15.67 70 35 70Z" fill="url(#paint0_linear)"/>
<path fill-rule="evenodd" clip-rule="evenodd" d="M39.8644 28.3958C36.9645 26.257 32.9725 26.2735 30.0906 28.4296L21.0078 19.3469C28.9491 12.23 40.9949 12.2178 48.9503 19.3099L39.8644 28.3958ZM41.6042 30.1356L50.6901 21.0497C57.7862 29.0095 57.766 41.0552 50.6532 48.9921L41.5703 39.9093C43.7286 37.0248 43.74 33.0316 41.6042 30.1356ZM39.8189 41.6373C36.9417 43.7288 33.0014 43.7179 30.1356 41.6042L21.0497 50.69C28.9723 57.7531 40.9616 57.7745 48.9086 50.727L39.8189 41.6373ZM28.3626 30.1812C26.2712 33.0583 26.2821 36.9986 28.3958 39.8645L19.3099 48.9502C12.2417 41.0218 12.2307 29.0325 19.2729 21.0915L28.3626 30.1812Z" fill="white"/>
<defs>
<linearGradient id="paint0_linear" x1="49.4735" y1="82.8196" x2="83.202" y2="21.8978" gradientUnits="userSpaceOnUse">
<stop stop-color="#029889"/>
<stop offset="1" stop-color="#30AA9F"/>
</linearGradient>
</defs>
</svg>
