<svg width="70" height="70" viewBox="0 0 70 70" fill="none" xmlns="http://www.w3.org/2000/svg">
<path fill-rule="evenodd" clip-rule="evenodd" d="M35 70C54.33 70 70 54.33 70 35C70 15.67 54.33 0 35 0C15.67 0 0 15.67 0 35C0 54.33 15.67 70 35 70Z" fill="url(#paint0_linear)"/>
<path fill-rule="evenodd" clip-rule="evenodd" d="M41.0968 19.6493C41.344 19.7223 41.5524 19.8908 41.676 20.1176C41.7996 20.344 41.8274 20.6103 41.7544 20.8581L32.1756 53.3014C32.0505 53.7254 31.6626 54 31.2425 54C31.1515 54 31.0585 53.9869 30.9666 53.9596L28.9032 53.3506C28.656 53.2771 28.4471 53.1091 28.324 52.8818C28.2008 52.6554 28.1726 52.3891 28.2456 52.1413L37.8244 19.6985C37.9762 19.1829 38.5185 18.8874 39.0334 19.0403L41.0968 19.6493ZM27.9458 45.0056L19.4403 36.498L27.9472 27.9909C28.1298 27.8083 28.2325 27.561 28.2325 27.3025C28.2325 27.0445 28.1303 26.7967 27.9472 26.6142L25.402 24.0686C25.2195 23.8861 24.9717 23.7833 24.7138 23.7833C24.4558 23.7833 24.208 23.8861 24.0255 24.0686L12.2851 35.8092C11.905 36.1894 11.905 36.8057 12.2851 37.1864L24.025 48.9274C24.2076 49.1099 24.4553 49.2131 24.7133 49.2131C24.9713 49.2131 25.219 49.1099 25.4015 48.9274L27.9468 46.3818C28.3269 46.0021 28.3269 45.3858 27.9458 45.0056ZM57.7149 35.8092L45.975 24.0676C45.6099 23.7025 44.964 23.7025 44.5989 24.0676L42.0537 26.6132C41.6736 26.9934 41.6736 27.6097 42.0537 27.9899L50.5606 36.497L42.0542 45.0056C41.6741 45.3858 41.6741 46.0021 42.0542 46.3823L44.5994 48.9279C44.782 49.1104 45.0297 49.2136 45.2877 49.2136C45.5452 49.2136 45.7934 49.1104 45.976 48.9279L57.7149 37.1868C58.095 36.8062 58.095 36.1894 57.7149 35.8092Z" fill="white"/>
<defs>
<linearGradient id="paint0_linear" x1="49.311" y1="80.8157" x2="82.3679" y2="21.562" gradientUnits="userSpaceOnUse">
<stop stop-color="#FEB300"/>
<stop offset="1" stop-color="#FDC231"/>
</linearGradient>
</defs>
</svg>
