<svg xmlns="http://www.w3.org/2000/svg" width="22" height="22" viewBox="0 0 22 22">
    <defs>
        <radialGradient id="a" cx="13.286%" cy="100.472%" r="130.547%" fx="13.286%" fy="100.472%">
            <stop offset="9%" stop-color="#FA8F21"/>
            <stop offset="78%" stop-color="#D82D7E"/>
        </radialGradient>
    </defs>
    <path fill="url(#a)" fill-rule="nonzero" d="M7.334 11a3.667 3.667 0 1 1 7.333 0 3.667 3.667 0 0 1-7.333 0m-1.982 0a5.648 5.648 0 1 0 11.297 0 5.648 5.648 0 0 0-11.297 0m10.2-5.872a1.32 1.32 0 1 0 1.321-1.32c-.729 0-1.32.591-1.32 1.32M6.556 19.954c-1.072-.05-1.655-.228-2.043-.379-.513-.2-.88-.438-1.265-.822a3.394 3.394 0 0 1-.823-1.265c-.15-.387-.33-.97-.378-2.043-.053-1.16-.064-1.507-.064-4.445 0-2.937.011-3.285.064-4.445.049-1.073.229-1.655.378-2.043.2-.514.438-.88.823-1.265a3.39 3.39 0 0 1 1.265-.823c.388-.151.97-.33 2.043-.378 1.16-.054 1.508-.064 4.444-.064 2.937 0 3.285.011 4.446.064 1.072.048 1.654.228 2.043.378.513.199.88.438 1.265.823.385.384.623.751.823 1.265.15.387.33.97.378 2.043.054 1.16.064 1.508.064 4.445 0 2.938-.01 3.285-.064 4.445-.049 1.073-.228 1.656-.378 2.043-.2.514-.438.88-.823 1.265a3.419 3.419 0 0 1-1.265.822c-.387.151-.97.33-2.043.379-1.16.053-1.508.064-4.446.064-2.937 0-3.285-.01-4.444-.064M6.466.067c-1.172.053-1.972.239-2.67.51a5.396 5.396 0 0 0-1.95 1.27A5.375 5.375 0 0 0 .578 3.794c-.272.7-.458 1.499-.511 2.67C.012 7.638 0 8.013 0 11s.012 3.362.067 4.535c.053 1.171.239 1.97.51 2.67.281.723.657 1.338 1.27 1.949a5.409 5.409 0 0 0 1.948 1.268c.7.272 1.5.458 2.67.511C7.64 21.987 8.013 22 11 22c2.988 0 3.363-.012 4.536-.067 1.17-.053 1.97-.239 2.67-.51a5.41 5.41 0 0 0 1.948-1.27 5.389 5.389 0 0 0 1.27-1.948c.271-.7.458-1.499.51-2.67.054-1.174.066-1.548.066-4.535s-.012-3.362-.066-4.535c-.053-1.171-.239-1.971-.51-2.67a5.41 5.41 0 0 0-1.27-1.949A5.383 5.383 0 0 0 18.207.578c-.7-.272-1.5-.459-2.67-.511C14.364.013 13.989 0 11 0 8.014 0 7.64.012 6.465.067"/>
</svg>
