<svg xmlns="http://www.w3.org/2000/svg" width="160" height="39" viewBox="0 0 160 39">
    <defs>
        <linearGradient id="a" x1="34.11%" x2="68.406%" y1="91.839%" y2="7.191%">
            <stop offset="0%" stop-color="#FEB300"/>
            <stop offset="100%" stop-color="#FDC231"/>
        </linearGradient>
    </defs>
    <g fill="none" fill-rule="evenodd">
        <path fill="url(#a)" d="M14.828 39.953v-9.265c1.327.846 2.95 1.36 4.903 1.36 4.829 0 8.884-4.007 8.884-9.3 0-5.332-4.055-9.302-8.884-9.302-1.954 0-3.576.514-4.903 1.36v-.956H8.857v26.103H3a3 3 0 0 1-3-3V18.376a5 5 0 0 1 1.47-3.541l13.018-12.98a3 3 0 0 1 4.236 0l13.019 12.98a5 5 0 0 1 1.47 3.54v18.578a3 3 0 0 1-3 3H14.827zm3.723-12.794c-1.327 0-2.617-.368-3.723-1.655V19.99c1.106-1.287 2.396-1.691 3.723-1.691 2.433 0 4.203 1.985 4.203 4.448s-1.77 4.412-4.203 4.412z" transform="translate(0 -1)"/>
        <path fill="#444" fill-rule="nonzero" d="M49.282 18.218c-2.912.11-4.755.882-6.156 2.28V30.68h-5.971V12.85h5.971v1.91c1.585-1.36 3.502-2.205 6.156-2.205v5.662zM60.598 12.446c5.64 0 9.695 3.934 9.695 9.301 0 5.441-4.055 9.485-9.695 9.485-5.64 0-9.694-4.044-9.694-9.485 0-5.367 4.055-9.301 9.694-9.301zm.037 13.64c2.396 0 4.018-1.912 4.018-4.302 0-2.316-1.622-4.191-4.018-4.191-2.433 0-4.054 1.875-4.054 4.19 0 2.39 1.621 4.302 4.054 4.302zM84.448 12.446c4.829 0 8.883 3.97 8.883 9.301 0 5.294-4.054 9.302-8.883 9.302-1.954 0-3.576-.515-4.903-1.36v9.264h-5.971V12.85h5.971v.956c1.327-.846 2.95-1.36 4.903-1.36zm-1.18 13.713c2.433 0 4.202-1.949 4.202-4.412S85.701 17.3 83.268 17.3c-1.327 0-2.617.404-3.723 1.69v5.515c1.106 1.287 2.396 1.655 3.723 1.655zM114.416 21.38c0 .661 0 1.36-.11 2.022l.036.11h-12.754c.48 1.617 1.733 2.867 4.018 2.867 1.254 0 2.212-.477 2.728-1.286h5.898c-.848 3.676-4.276 5.992-8.7 5.992-5.86 0-9.768-3.897-9.768-9.338 0-5.404 3.797-9.301 9.51-9.301 5.198 0 9.142 3.566 9.142 8.933zm-9.142-4.339c-2.027 0-3.317 1.177-3.76 2.978h7.3c-.333-1.948-1.623-2.978-3.54-2.978zM136.644 30.68h-5.972v-.918c-1.327.845-2.949 1.36-4.903 1.36-4.828 0-8.883-4.007-8.883-9.338 0-5.294 4.055-9.265 8.883-9.265 1.954 0 3.576.515 4.903 1.36v-9.3h5.972V30.68zm-9.695-4.448c1.327 0 2.617-.367 3.723-1.654v-5.515c-1.106-1.286-2.396-1.69-3.723-1.69-2.433 0-4.202 1.984-4.202 4.41 0 2.5 1.77 4.45 4.202 4.45zM159.665 30.68h-5.971v-.992c-1.327.846-2.95 1.36-4.903 1.36-4.829 0-8.883-4.007-8.883-9.3 0-5.332 4.054-9.302 8.883-9.302 1.954 0 3.576.514 4.903 1.36v-.956h5.971v17.83zm-9.694-4.521c1.327 0 2.617-.368 3.723-1.655V18.99c-1.106-1.287-2.396-1.691-3.723-1.691-2.433 0-4.202 1.985-4.202 4.448s1.769 4.412 4.202 4.412z"/>
    </g>
</svg>
