<svg width="60" height="60" viewBox="0 0 60 60" fill="none" xmlns="http://www.w3.org/2000/svg">
<path fill-rule="evenodd" clip-rule="evenodd" d="M30 60C46.5685 60 60 46.5685 60 30C60 13.4315 46.5685 0 30 0C13.4315 0 0 13.4315 0 30C0 46.5685 13.4315 60 30 60Z" fill="url(#paint0_linear)"/>
<path fill-rule="evenodd" clip-rule="evenodd" d="M33.82 21.7036C24.505 18.7219 16 25.6339 16 34.5788C16 35.7986 16.135 38.1026 16.54 39.4579C16.54 39.7289 16.81 40 17.08 40H41.785C42.055 40 42.325 39.7289 42.46 39.4579C42.73 38.1026 43 35.7986 43 34.5788C43 28.7511 39.355 23.4655 33.82 21.7036ZM29.5 23.7365C30.31 23.7365 30.85 24.2786 30.85 25.0918C30.85 25.905 30.31 26.4471 29.5 26.4471C28.69 26.4471 28.15 25.905 28.15 25.0918C28.15 24.2786 28.69 23.7365 29.5 23.7365ZM18.7 34.5788C18.7 35.392 19.24 35.9341 20.05 35.9341C20.86 35.9341 21.4 35.392 21.4 34.5788C21.4 33.7657 20.86 33.2235 20.05 33.2235C19.24 33.2235 18.7 33.7657 18.7 34.5788ZM23.83 28.8866C23.29 29.4287 22.48 29.4287 21.94 28.8866C21.4 28.3445 21.4 27.3958 21.805 26.8537C22.345 26.3116 23.155 26.3116 23.695 26.8537C24.235 27.3958 24.235 28.3445 23.83 28.8866ZM27.07 34.5788C26.665 35.9341 28.015 37.2894 29.5 37.2894C30.985 37.2894 32.335 35.9341 31.93 34.5788C31.525 33.2235 29.5 29.1577 29.5 29.1577C29.5 29.1577 27.475 33.2235 27.07 34.5788ZM37.195 28.8866C36.655 29.4287 35.845 29.4287 35.305 28.8866C34.765 28.3445 34.765 27.5313 35.305 26.9892C35.845 26.4471 36.655 26.4471 37.195 26.9892C37.6 27.3958 37.6 28.3445 37.195 28.8866ZM37.6 34.5788C37.6 35.392 38.14 35.9341 38.95 35.9341C39.76 35.9341 40.3 35.392 40.3 34.5788C40.3 33.7657 39.76 33.2235 38.95 33.2235C38.14 33.2235 37.6 33.7657 37.6 34.5788Z" fill="white"/>
<defs>
<linearGradient id="paint0_linear" x1="42.2666" y1="69.2706" x2="70.6011" y2="18.4817" gradientUnits="userSpaceOnUse">
<stop stop-color="#E1493C"/>
<stop offset="1" stop-color="#E87A38"/>
</linearGradient>
</defs>
</svg>
