<svg width="60" height="60" viewBox="0 0 60 60" fill="none" xmlns="http://www.w3.org/2000/svg">
<path fill-rule="evenodd" clip-rule="evenodd" d="M30 60C46.5685 60 60 46.5685 60 30C60 13.4315 46.5685 0 30 0C13.4315 0 0 13.4315 0 30C0 46.5685 13.4315 60 30 60Z" fill="url(#paint0_linear)"/>
<path fill-rule="evenodd" clip-rule="evenodd" d="M36.5235 31.8502V40.9665C36.5235 42.919 37.9166 44.5516 39.7599 44.9212C39.5047 44.9723 39.241 44.9997 38.9711 44.9999V45H38.9676H34.9423H24.0373C21.8111 45 20 43.1868 20 40.958V20.2781L22.2848 18L23.779 19.4899L25.2732 18L26.7674 19.4899L28.2617 18L29.756 19.4899L31.2502 18L32.7444 19.4899L34.2387 18L36.5234 20.2781V31.8502H36.5235ZM23.9531 38.3585H32.5704V36.7756H23.9531V38.3585ZM32.5704 35.1925H23.9531V33.6095H32.5704V35.1925ZM23.9531 32.0264H32.5704V30.4435H23.9531V32.0264ZM32.5704 28.8603H23.9531V27.2774H32.5704V28.8603ZM42.959 41.5366C42.6889 42.6155 41.7125 43.417 40.5524 43.417C39.2026 43.417 38.1046 42.3177 38.1046 40.9665V31.8502H43V40.9665C43 41.1601 42.9855 41.3502 42.959 41.5366Z" fill="white"/>
<defs>
<linearGradient id="paint0_linear" x1="42.2666" y1="69.2706" x2="70.6011" y2="18.4817" gradientUnits="userSpaceOnUse">
<stop stop-color="#6048F0"/>
<stop offset="1" stop-color="#7F6AFB"/>
</linearGradient>
</defs>
</svg>
