<svg width="60" height="60" viewBox="0 0 60 60" fill="none" xmlns="http://www.w3.org/2000/svg">
<path fill-rule="evenodd" clip-rule="evenodd" d="M30 60C46.5685 60 60 46.5685 60 30C60 13.4315 46.5685 0 30 0C13.4315 0 0 13.4315 0 30C0 46.5685 13.4315 60 30 60Z" fill="url(#paint0_linear)"/>
<path fill-rule="evenodd" clip-rule="evenodd" d="M40.1396 16H19.8606C19.3853 16 19 16.3804 19 16.8496V41.6477C19 41.873 19.0907 42.0892 19.252 42.2485L21.7869 44.7511C22.123 45.0829 22.6679 45.0829 23.004 44.7511L24.9304 42.8493L26.8566 44.7511C27.018 44.9105 27.2369 45 27.4651 45C27.6933 45 27.9123 44.9105 28.0737 44.7511L30 42.8493L31.9263 44.7511C32.0877 44.9105 32.3067 45 32.5348 45C32.763 45 32.982 44.9105 33.1434 44.7511L35.0697 42.8493L36.996 44.7511C37.1641 44.917 37.3842 45 37.6045 45C37.8247 45 38.045 44.917 38.213 44.7511L40.7479 42.2485C40.9093 42.0892 41 41.8731 41 41.6477V16.8496C41.0002 16.3804 40.6148 16 40.1396 16ZM29.1393 22.3817V21.3998C29.1393 20.9306 29.5247 20.5502 29.9999 20.5502C30.4752 20.5502 30.8605 20.9306 30.8605 21.3998V22.3702H31.8435C32.3188 22.3702 32.7041 22.7506 32.7041 23.2198C32.7041 23.689 32.3188 24.0694 31.8435 24.0694H29.3855C28.8435 24.0694 28.4026 24.5047 28.4026 25.0398C28.4026 25.575 28.8435 26.0104 29.3855 26.0104H30.6146C32.1056 26.0104 33.3187 27.2079 33.3187 28.68C33.3187 30.0701 32.2367 31.215 30.8605 31.3381V32.3201C30.8605 32.7893 30.4752 33.1697 29.9999 33.1697C29.5247 33.1697 29.1393 32.7893 29.1393 32.3201V31.3496H28.1564C27.6812 31.3496 27.2958 30.9692 27.2958 30.5C27.2958 30.0308 27.6812 29.6504 28.1564 29.6504H30.6146C31.1566 29.6504 31.5976 29.215 31.5976 28.6799C31.5976 28.1449 31.1566 27.7095 30.6146 27.7095H29.3855C27.8944 27.7095 26.6814 26.5119 26.6814 25.0398C26.6815 23.6497 27.7633 22.5049 29.1393 22.3817ZM25.3912 37.7198H34.6089C35.0841 37.7198 35.4695 37.3394 35.4695 36.8702C35.4695 36.401 35.0841 36.0206 34.6089 36.0206H25.3912C24.9159 36.0206 24.5306 36.401 24.5306 36.8702C24.5306 37.3394 24.9159 37.7198 25.3912 37.7198Z" fill="white"/>
<defs>
<linearGradient id="paint0_linear" x1="42.2666" y1="69.2706" x2="70.6011" y2="18.4817" gradientUnits="userSpaceOnUse">
<stop stop-color="#FEB300"/>
<stop offset="1" stop-color="#FDC231"/>
</linearGradient>
</defs>
</svg>
