<svg width="60" height="60" viewBox="0 0 60 60" fill="none" xmlns="http://www.w3.org/2000/svg">
<path fill-rule="evenodd" clip-rule="evenodd" d="M30 60C46.5685 60 60 46.5685 60 30C60 13.4315 46.5685 0 30 0C13.4315 0 0 13.4315 0 30C0 46.5685 13.4315 60 30 60Z" fill="url(#paint0_linear)"/>
<path fill-rule="evenodd" clip-rule="evenodd" d="M20 42.5634L21.3141 41.3468C22.1409 40.5763 23.4163 40.566 24.2553 41.3228L25.9194 42.8135C26.197 43.063 26.6176 43.0622 26.8938 42.8109L28.5337 41.3257C29.3659 40.5686 30.6341 40.5686 31.4663 41.3257L33.1062 42.8109C33.3824 43.0619 33.803 43.063 34.0806 42.8135L35.7447 41.3225C36.5837 40.5657 37.8594 40.5763 38.6859 41.3468L40 42.5634V17H20V42.5634ZM25.1228 25.4804H34.487C34.89 25.4804 35.2166 25.8086 35.2166 26.2129C35.2166 26.6175 34.89 26.9454 34.487 26.9454H25.1228C24.7198 26.9454 24.3932 26.6175 24.3932 26.2129C24.3932 25.8086 24.7198 25.4804 25.1228 25.4804ZM34.487 30.5729H25.1228C24.7198 30.5729 24.3932 30.9008 24.3932 31.3053C24.3932 31.7099 24.7198 32.0378 25.1228 32.0378H34.487C34.89 32.0378 35.2166 31.7099 35.2166 31.3053C35.2166 30.9008 34.89 30.5729 34.487 30.5729Z" fill="white"/>
<defs>
<linearGradient id="paint0_linear" x1="42.4059" y1="70.9882" x2="71.316" y2="18.7695" gradientUnits="userSpaceOnUse">
<stop stop-color="#029889"/>
<stop offset="1" stop-color="#30AA9F"/>
</linearGradient>
</defs>
</svg>
