<svg width="82" height="60" viewBox="0 0 82 60" fill="none" xmlns="http://www.w3.org/2000/svg">
<path fill-rule="evenodd" clip-rule="evenodd" d="M71.7609 0H10.2391C4.59382 0 0 4.5908 0 10.2334V49.7647C0 55.4083 4.59382 60 10.2391 60H71.76C77.4062 60 82 55.4083 82 49.7647V10.2334C82 4.5908 77.4062 0 71.7609 0ZM10.2391 2.89873H71.76C74.3603 2.89873 76.6427 4.26113 77.9465 6.30472L46.3947 36.0907C43.419 38.8975 38.581 38.8975 35.6062 36.0907L4.05262 6.30472C5.35733 4.26113 7.63967 2.89873 10.2391 2.89873ZM2.90098 49.7647C2.90098 50.0926 2.93013 50.4122 2.97113 50.7282L24.9289 30L2.97113 9.27084C2.92922 9.58685 2.90098 9.90741 2.90098 10.2334V49.7647ZM10.2391 57.1004C7.63876 57.1004 5.35642 55.7389 4.05262 53.6953L27.0418 31.9935L33.6164 38.198C35.6509 40.1205 38.3259 41.0822 41 41.0822C43.6741 41.0822 46.35 40.1205 48.3846 38.198L54.9582 31.9935L77.9465 53.6944C76.6436 55.7389 74.3603 57.1004 71.7609 57.1004H10.2391ZM79.099 49.7647V10.2334C79.099 9.90832 79.0699 9.58776 79.0298 9.27266L57.0711 30L79.0289 50.7282C79.0699 50.4122 79.099 50.0935 79.099 49.7647Z" fill="#029889"/>
</svg>
