<svg width="70" height="70" viewBox="0 0 70 70" fill="none" xmlns="http://www.w3.org/2000/svg">
<path fill-rule="evenodd" clip-rule="evenodd" d="M69.9073 8.38313C69.6553 7.6066 68.9382 7.07828 67.9419 6.93355L62.7689 6.18581C62.7593 6.18214 62.746 6.17469 62.7334 6.16761C62.7112 6.15516 62.6911 6.14384 62.6965 6.15624L60.3609 1.42624C59.916 0.520541 59.1911 0 58.3744 0C57.5562 0 56.8329 0.520542 56.3864 1.42312L54.0757 6.11345C54.0688 6.12275 54.0568 6.13379 54.0459 6.14385L54.0458 6.14386L54.0458 6.14389C54.0284 6.15988 54.0138 6.17336 54.0267 6.17336L48.8062 6.93355C47.8084 7.07905 47.0912 7.6066 46.8392 8.38313C46.5865 9.16044 46.8556 10.0101 47.5781 10.7135L51.3223 14.3604C51.328 14.3686 51.3339 14.3833 51.3395 14.3975C51.3494 14.4223 51.3587 14.4455 51.3651 14.4297L50.4738 19.6304C50.2988 20.6528 50.6161 21.2885 50.914 21.6418C51.5355 22.3794 52.622 22.5272 53.6883 21.9655L58.3114 19.5308L58.3892 19.5106L63.059 21.9655C63.4977 22.1973 63.9309 22.314 64.3462 22.314C64.9397 22.314 65.4662 22.0752 65.8325 21.6418C66.1304 21.2885 66.4478 20.6528 66.2728 19.6304L65.3861 14.4779C65.3864 14.4657 65.3886 14.4497 65.3907 14.4352C65.3939 14.4117 65.3967 14.392 65.39 14.3978L69.1669 10.7143C69.8902 10.0101 70.1601 9.16044 69.9073 8.38313ZM63.6633 12.6245C63.1072 13.166 62.8093 14.0811 62.9423 14.8459L63.7442 19.5269L59.5403 17.3164C59.1157 17.0938 58.6716 17.0456 58.3744 17.0456C58.0758 17.0456 57.6324 17.0938 57.2062 17.3164L53.0023 19.5285L53.805 14.8459C53.9372 14.0811 53.6401 13.166 53.0848 12.6245L49.6843 9.30828L54.3829 8.62434C55.1521 8.51307 55.9299 7.9474 56.2713 7.25257L58.3737 2.99175L60.4744 7.24868C60.8174 7.94662 61.5944 8.51307 62.3644 8.62434L67.063 9.30828L63.6633 12.6245ZM46.2365 23.4283C45.3024 22.493 44.0602 21.9771 42.7373 21.9771C41.4158 21.9771 40.1737 22.493 39.2388 23.4267L1.449 61.2309C0.514888 62.167 0 63.4096 0 64.7323C0 66.0543 0.515666 67.2977 1.449 68.2298L1.76711 68.5504C2.70199 69.4857 3.9441 70 5.26632 70C6.58776 70 7.83143 69.4857 8.76554 68.5504L46.5554 30.7462C48.4835 28.8157 48.4835 25.6746 46.553 23.7434L46.2365 23.4283ZM44.8046 28.9939L7.01476 66.7989C6.08143 67.7342 4.45121 67.7327 3.51944 66.8005L3.20055 66.4791C2.73311 66.0131 2.47566 65.3922 2.47566 64.7323C2.47566 64.0702 2.73311 63.45 3.20133 62.9832L40.9911 25.1782C41.4578 24.7106 42.0777 24.4538 42.738 24.4538C43.3991 24.4538 44.019 24.7106 44.4888 25.1797L44.8054 25.4949C45.769 26.4605 45.769 28.0291 44.8046 28.9939ZM33.4366 6.6511C34.3629 6.78649 35.0295 7.28525 35.2667 8.01665C35.5039 8.74806 35.2566 9.54248 34.5877 10.1953L31.4066 13.2983L32.1587 17.6797C32.3205 18.6243 32.021 19.2172 31.7411 19.5487C31.3934 19.9603 30.8941 20.1875 30.3309 20.1875C29.9467 20.1875 29.5477 20.0801 29.1456 19.8693L25.2124 17.7996L21.2792 19.8677C20.2867 20.3898 19.2679 20.242 18.6822 19.5487C18.4022 19.218 18.1035 18.6243 18.2653 17.6813L19.0174 13.2999L15.834 10.1953C15.1666 9.54248 14.9185 8.74728 15.1565 8.01665C15.3945 7.28369 16.0603 6.78649 16.9843 6.6511L21.3834 6.01385L23.3488 2.02848C23.7642 1.1897 24.4424 0.709617 25.2124 0.709617C25.9816 0.709617 26.6606 1.1897 27.0744 2.02848L29.0406 6.01385L33.4366 6.6511ZM28.9535 13.6391C28.8306 12.9303 29.1059 12.0829 29.6216 11.5803L32.28 8.98693L28.6066 8.45316C27.8918 8.34734 27.1732 7.82369 26.8551 7.18021L25.2124 3.84843L23.569 7.18021C23.2501 7.82369 22.5314 8.34734 21.8205 8.45316L18.1432 8.98693L20.8016 11.5803C21.3173 12.0822 21.5918 12.9303 21.4697 13.6415L20.8428 17.3L24.1274 15.5711C24.5256 15.3634 24.9371 15.319 25.2124 15.319C25.4869 15.319 25.8976 15.3626 26.2951 15.5711L29.5819 17.3L28.9535 13.6391ZM67.3406 41.4496L62.9447 40.8108L60.9777 36.8238C60.5631 35.9874 59.8841 35.5065 59.1149 35.5065C58.3449 35.5065 57.6659 35.9874 57.2529 36.8254L55.2859 40.8108L50.8876 41.4496C49.9636 41.585 49.2978 42.0822 49.059 42.8151C48.821 43.5457 49.0691 44.341 49.7372 44.9922L52.9207 48.0968L52.1686 52.4782C52.0068 53.4228 52.3062 54.0149 52.5855 54.3456C53.1711 55.042 54.1916 55.1867 55.1824 54.6662L59.1157 52.598L63.0481 54.6678C63.4502 54.8786 63.8492 54.986 64.2334 54.986C64.7958 54.986 65.2959 54.7588 65.6435 54.3456C65.9228 54.0142 66.2222 53.4213 66.0596 52.4782L65.3099 48.0952L68.491 44.9938C69.1599 44.341 69.408 43.5481 69.1708 42.8151C68.9328 42.0837 68.267 41.585 67.3406 41.4496ZM63.5249 46.3788C63.0092 46.8814 62.7339 47.7288 62.8575 48.4376L63.4844 52.0969L60.196 50.3665C59.8009 50.1595 59.3902 50.1175 59.1164 50.1175C58.8411 50.1175 58.4304 50.1603 58.0322 50.3696L54.7461 52.0985L55.3738 48.4376C55.4959 47.7288 55.2206 46.8791 54.7049 46.3772L52.0472 43.7854L55.723 43.2501C56.4347 43.1458 57.1541 42.6222 57.473 41.9771L59.1164 38.6469L60.7575 41.9756C61.0741 42.6206 61.7935 43.1443 62.5107 43.2516L66.1841 43.7854L63.5249 46.3788Z" fill="#30AA9F"/>
</svg>
