<svg width="40" height="40" viewBox="0 0 40 40" fill="none" xmlns="http://www.w3.org/2000/svg">
<path fill-rule="evenodd" clip-rule="evenodd" d="M20 40C31.028 40 40 31.0276 40 20C40 8.97244 31.028 0 20 0C8.972 0 0 8.97244 0 20C0 31.0276 8.97244 40 20 40ZM25.1356 37.8573C27.0996 36.12 28.7391 33.4196 29.8516 30.1107C31.5756 30.4151 33.2173 30.8031 34.7662 31.2676C32.3747 34.3951 29.0129 36.7404 25.1356 37.8573ZM30.2724 28.7471C32.1538 29.0858 33.9427 29.5222 35.6218 30.048C37.3733 27.3342 38.4373 24.1396 38.5667 20.7071H31.4151C31.3573 23.5813 30.9542 26.3031 30.2724 28.7471ZM38.5667 19.2924H31.4156C31.3578 16.4182 30.9547 13.696 30.2724 11.252C32.1542 10.9138 33.9431 10.4769 35.6222 9.95067C37.3733 12.6649 38.4373 15.8604 38.5667 19.2924ZM29.8516 9.888C31.5756 9.58444 33.2178 9.19644 34.7662 8.732C32.3742 5.604 29.0124 3.25911 25.1347 2.14178C27.0991 3.87911 28.7391 6.57956 29.8516 9.888ZM20.7076 1.46622C23.976 1.89244 26.8156 5.24267 28.4716 10.1156C26.0027 10.4796 23.3933 10.6756 20.7076 10.7058V1.46622ZM28.8924 11.48C26.2907 11.8742 23.5404 12.0898 20.7076 12.1204V19.2924H30.0009C29.944 16.4849 29.5498 13.8369 28.8924 11.48ZM20.7076 20.7076H30.0009C29.944 23.5142 29.5498 26.1627 28.8924 28.52C26.2907 28.1244 23.5404 27.9107 20.7076 27.8787V20.7076ZM28.4711 29.884C26.0027 29.5196 23.3933 29.3236 20.7076 29.2938V38.5329C23.9764 38.1067 26.8156 34.7573 28.4711 29.884ZM19.2924 38.5329C16.024 38.1067 13.1844 34.7573 11.5284 29.884C13.9973 29.5196 16.6067 29.3236 19.2924 29.2938V38.5329ZM11.1076 28.52C13.7093 28.1249 16.4596 27.9107 19.2924 27.8787V20.7076H9.99867C10.056 23.5142 10.4502 26.1627 11.1076 28.52ZM19.2924 19.2924H9.99867C10.056 16.4849 10.4502 13.8369 11.1076 11.48C13.7093 11.8742 16.46 12.0898 19.2924 12.1204V19.2924ZM19.2924 10.7062V1.46622C16.024 1.89244 13.184 5.24267 11.5284 10.116C13.9973 10.48 16.6067 10.676 19.2924 10.7062ZM14.8653 2.14178C12.9009 3.87911 11.2613 6.57956 10.1489 9.888C8.42444 9.58489 6.78267 9.19644 5.23333 8.732C7.62578 5.604 10.9876 3.25911 14.8653 2.14178ZM9.728 11.2524C7.84622 10.9142 6.05733 10.4773 4.37822 9.95156C2.62622 12.6649 1.56222 15.8604 1.43289 19.2929H8.58533C8.64267 16.4187 9.04578 13.6964 9.728 11.2524ZM1.43289 20.7076H8.58533C8.64267 23.5818 9.04578 26.3036 9.728 28.7471C7.84622 29.0853 6.05689 29.5227 4.37778 30.0484C2.62622 27.3342 1.56222 24.1391 1.43289 20.7076ZM14.8649 37.8573C12.9004 36.12 11.2609 33.4191 10.1489 30.1107C8.42444 30.4151 6.78267 30.8031 5.23333 31.2676C7.62533 34.3951 10.9867 36.7404 14.8649 37.8573Z" fill="#2DA99E"/>
</svg>
