<svg width="50" height="50" viewBox="0 0 50 50" fill="none" xmlns="http://www.w3.org/2000/svg">
<path fill-rule="evenodd" clip-rule="evenodd" d="M25 50C38.8071 50 50 38.8071 50 25C50 11.1929 38.8071 0 25 0C11.1929 0 0 11.1929 0 25C0 38.8071 11.1929 50 25 50Z" fill="url(#paint0_linear)"/>
<path fill-rule="evenodd" clip-rule="evenodd" d="M18.8386 23.3701C17.3755 22.3602 16.4985 21.7528 16.2075 21.5483C15.6771 21.1904 15.1764 20.6982 14.7059 20.0717C14.2354 19.4453 14 18.8635 14 18.3266C14 17.6619 14.1775 17.1079 14.5326 16.6647C14.8877 16.2216 15.3947 16 16.0535 16H34.9463C35.5023 16 35.9837 16.2002 36.3901 16.6008C36.7966 17.0014 37 17.4829 37 18.0455C37 18.7187 36.7904 19.3622 36.3709 19.9756C35.9517 20.5893 35.4299 21.1136 34.8053 21.548C31.5881 23.7726 29.5857 25.1576 28.7987 25.7029C28.7131 25.7627 28.5311 25.8925 28.2531 26.0929C27.975 26.2934 27.7441 26.4553 27.5601 26.5789C27.3761 26.7023 27.1536 26.8407 26.8927 26.9943C26.6319 27.1474 26.3857 27.2628 26.1547 27.3391C25.9237 27.4159 25.7097 27.4541 25.5129 27.4541H25.5H25.4871C25.2903 27.4541 25.0764 27.416 24.8453 27.3391C24.6143 27.2628 24.3683 27.1475 24.1073 26.9943C23.8462 26.8409 23.6238 26.7024 23.4398 26.5789C23.2559 26.4553 23.0248 26.2934 22.7467 26.0929C22.4687 25.8927 22.2869 25.7627 22.2014 25.7029C21.4227 25.1576 20.3018 24.38 18.8386 23.3701ZM29.3248 27.3267C30.7792 26.2783 32.9101 24.808 35.7163 22.9161C36.2043 22.5838 36.632 22.2128 37 21.8039V31.9543C37 32.5172 36.7991 32.9983 36.3968 33.399C35.9946 33.7997 35.5111 34 34.9465 34H16.0536C15.4889 34 15.0053 33.7997 14.6032 33.399C14.201 32.9984 14 32.5171 14 31.9543V21.8039C14.3765 22.2215 14.8086 22.5924 15.2964 22.9161C18.3939 25.0126 20.5201 26.483 21.6753 27.3267C22.163 27.6845 22.5588 27.9638 22.8624 28.164C23.1662 28.3643 23.5706 28.5688 24.0753 28.7775C24.5801 28.9865 25.0507 29.0907 25.4871 29.0907H25.5H25.5131C25.9496 29.0907 26.42 28.9865 26.9247 28.7775C27.4297 28.5688 27.8338 28.3643 28.1376 28.164C28.4414 27.9638 28.8371 27.6845 29.3248 27.3267Z" fill="white"/>
<defs>
<linearGradient id="paint0_linear" x1="35.2221" y1="57.7255" x2="58.8342" y2="15.4014" gradientUnits="userSpaceOnUse">
<stop stop-color="#6048F0"/>
<stop offset="1" stop-color="#7F6AFB"/>
</linearGradient>
</defs>
</svg>
