<svg width="40" height="40" viewBox="0 0 40 40" fill="none" xmlns="http://www.w3.org/2000/svg">
<path fill-rule="evenodd" clip-rule="evenodd" d="M24.4213 12.5532C25.1773 12.5532 25.8871 12.8479 26.4209 13.3821L26.6018 13.5621C27.7049 14.6652 27.7049 16.4594 26.6031 17.5621L5.00889 39.1559C4.47511 39.6901 3.76444 39.9839 3.00933 39.9839C2.25378 39.9839 1.544 39.6901 1.00978 39.1559L0.828 38.9728C0.294667 38.4403 0 37.7301 0 36.975C0 36.2194 0.294222 35.5097 0.828 34.975L22.4222 13.3812C22.9564 12.8479 23.6662 12.5532 24.4213 12.5532ZM4.00844 38.1554L25.6027 16.5612C26.1538 16.0101 26.1538 15.1141 25.6031 14.5626L25.4222 14.3826C25.1538 14.1146 24.7996 13.9679 24.4218 13.9679C24.0444 13.9679 23.6902 14.1146 23.4236 14.3817L1.82933 35.9759C1.56178 36.2426 1.41467 36.5968 1.41467 36.975C1.41467 37.3519 1.56178 37.7066 1.82889 37.9728L2.01111 38.1563C2.54356 38.6888 3.47511 38.6897 4.00844 38.1554Z" fill="#30AA9F"/>
<path fill-rule="evenodd" clip-rule="evenodd" d="M38.8226 3.96044C39.392 4.04311 39.8018 4.34489 39.9458 4.78844C40.0902 5.23244 39.936 5.71778 39.5226 6.12L37.3644 8.224C37.3683 8.22071 37.3667 8.23198 37.3648 8.24537C37.3636 8.25368 37.3624 8.2628 37.3622 8.26978L37.8689 11.2129C37.9689 11.7969 37.7875 12.16 37.6173 12.3618C37.408 12.6093 37.1071 12.7458 36.768 12.7458C36.5306 12.7458 36.2831 12.6791 36.0324 12.5467L33.364 11.1444L33.3195 11.156L30.6778 12.5467C30.0684 12.8676 29.4475 12.7831 29.0924 12.3618C28.9222 12.16 28.7409 11.7969 28.8409 11.2129L29.3502 8.24222C29.3465 8.25127 29.3412 8.23801 29.3356 8.22384C29.3323 8.21574 29.329 8.20735 29.3258 8.20267L27.1862 6.11956C26.7733 5.71778 26.6195 5.23244 26.764 4.78844C26.908 4.34489 27.3178 4.04356 27.888 3.96044L30.8711 3.52622C30.8637 3.52622 30.8721 3.51852 30.882 3.50939C30.8883 3.50364 30.8951 3.49732 30.8991 3.492L32.2195 0.812889C32.4746 0.297333 32.888 0 33.3555 0C33.8222 0 34.2364 0.297333 34.4906 0.814667L35.8253 3.51644C35.8222 3.50936 35.8337 3.51582 35.8464 3.52294C35.8536 3.52698 35.8612 3.53124 35.8666 3.53333L38.8226 3.96044ZM35.9658 8.48C35.8898 8.04311 36.06 7.52044 36.3778 7.21111L38.3204 5.31689L35.6355 4.92622C35.1955 4.86267 34.7515 4.53911 34.5555 4.14044L33.3551 1.70889L32.1538 4.14267C31.9586 4.53956 31.5142 4.86267 31.0746 4.92622L28.3898 5.31689L30.3329 7.21111C30.6502 7.52044 30.82 8.04311 30.7444 8.48L30.2858 11.1547L32.688 9.89111C32.9315 9.764 33.1849 9.73644 33.3555 9.73644C33.5253 9.73644 33.7791 9.764 34.0218 9.89111L36.424 11.1538L35.9658 8.48Z" fill="#30AA9F"/>
<path fill-rule="evenodd" clip-rule="evenodd" d="M19.1057 3.79905C19.635 3.87638 20.0159 4.16127 20.1514 4.57905C20.287 4.99683 20.1457 5.45061 19.7634 5.8235L17.9457 7.59594L18.3754 10.0986C18.4679 10.6382 18.2968 10.9768 18.1368 11.1662C17.9381 11.4013 17.6528 11.5311 17.331 11.5311C17.1114 11.5311 16.8834 11.4697 16.6537 11.3493L14.4061 10.1671L12.1586 11.3484C11.5914 11.6466 11.0092 11.5622 10.6746 11.1662C10.5146 10.9773 10.3439 10.6382 10.4363 10.0995L10.8661 7.59683L9.047 5.8235C8.66567 5.45061 8.52389 4.99638 8.65989 4.57905C8.79589 4.16038 9.17633 3.87638 9.70433 3.79905L12.2181 3.43505L13.3412 1.15861C13.5786 0.679496 13.9661 0.405273 14.4061 0.405273C14.8457 0.405273 15.2337 0.679496 15.4701 1.15861L16.5937 3.43505L19.1057 3.79905ZM16.5439 7.79061C16.4737 7.38572 16.631 6.90172 16.9257 6.61461L18.4448 5.13327L16.3457 4.82838C15.9372 4.76794 15.5266 4.46883 15.3448 4.10127L14.4061 2.19816L13.467 4.10127C13.2848 4.46883 12.8741 4.76794 12.4679 4.82838L10.3666 5.13327L11.8857 6.61461C12.1803 6.90127 12.3372 7.38572 12.2674 7.79194L11.9092 9.88172L13.7861 8.89416C14.0137 8.7755 14.2488 8.75016 14.4061 8.75016C14.563 8.75016 14.7977 8.77505 15.0248 8.89416L16.903 9.88172L16.5439 7.79061Z" fill="#30AA9F"/>
<path fill-rule="evenodd" clip-rule="evenodd" d="M35.9695 23.311L38.4815 23.6759C39.0109 23.7533 39.3913 24.0381 39.5273 24.4559C39.6629 24.8746 39.5211 25.3275 39.1389 25.7004L37.3211 27.4719L37.7495 29.9755C37.8424 30.5141 37.6713 30.8528 37.5118 31.0421C37.3131 31.2781 37.0273 31.4079 36.706 31.4079C36.4864 31.4079 36.2584 31.3466 36.0287 31.2261L33.7815 30.0439L31.534 31.2253C30.9678 31.5226 30.3847 31.4399 30.05 31.0421C29.8904 30.8533 29.7193 30.515 29.8118 29.9755L30.2415 27.4728L28.4224 25.6995C28.0407 25.3275 27.8989 24.8733 28.0349 24.4559C28.1713 24.0373 28.5518 23.7533 29.0798 23.6759L31.5931 23.311L32.7171 21.0346C32.9531 20.5559 33.3411 20.2812 33.7811 20.2812C34.2207 20.2812 34.6087 20.5559 34.8455 21.0337L35.9695 23.311ZM35.9198 27.6675C35.8491 27.2626 36.0064 26.7786 36.3011 26.4915L37.8207 25.0101L35.7215 24.7053C35.3118 24.6439 34.9007 24.3448 34.7198 23.9764L33.782 22.075L32.8429 23.9773C32.6607 24.3457 32.2495 24.6448 31.8429 24.7044L29.7424 25.0101L31.2611 26.4906C31.5558 26.7772 31.7131 27.2626 31.6433 27.6675L31.2847 29.7586L33.1624 28.771C33.39 28.6515 33.6247 28.627 33.782 28.627C33.9384 28.627 34.1731 28.651 34.3989 28.7692L36.278 29.7577L35.9198 27.6675Z" fill="#30AA9F"/>
</svg>
