<svg width="36" height="40" viewBox="0 0 36 40" fill="none" xmlns="http://www.w3.org/2000/svg">
<path fill-rule="evenodd" clip-rule="evenodd" d="M31.0785 6.23867H27.576V4.99467C27.576 2.24089 25.3684 0 22.6545 0H4.92189C2.20804 0 0 2.24089 0 4.99467V28.7667C0 31.5204 2.20804 33.7618 4.92145 33.7618H8.42401V35.0049C8.42445 37.7591 10.6321 40 13.3459 40H31.0785C33.792 40 36 37.7591 36 35.0053V11.2329C36.0004 8.47911 33.7924 6.23867 31.0785 6.23867ZM4.92189 32.3462C2.97748 32.3462 1.39481 30.7404 1.39481 28.7667V4.99467C1.39481 3.02089 2.97705 1.41467 4.92189 1.41467H22.6545C24.5998 1.41467 26.1821 3.02044 26.1821 4.99467V28.7667C26.1821 30.74 24.6003 32.3462 22.6545 32.3462H4.92189ZM31.0785 38.5853C33.0234 38.5853 34.6056 36.9791 34.6056 35.0053V11.2333C34.6056 9.25956 33.023 7.65378 31.0785 7.65378H27.576V28.7671C27.576 31.5209 25.3684 33.7622 22.6545 33.7622H9.81794V35.0053C9.81794 36.9796 11.4006 38.5853 13.3459 38.5853H31.0785Z" fill="#029889"/>
<path d="M20.2933 16H6.7071C6.31737 16 6 16.2237 6 16.5002C6 16.776 6.31737 17 6.7071 17H20.2929C20.6835 17 21 16.776 21 16.5002C21 16.2237 20.6835 16 20.2933 16Z" fill="#029889"/>
<path d="M20.2933 9H6.7071C6.31737 9 6 9.224 6 9.49984C6 9.77631 6.31737 10 6.7071 10H20.2929C20.6835 10 21 9.77631 21 9.49984C21 9.224 20.6835 9 20.2933 9Z" fill="#029889"/>
<path d="M20.2933 23H6.7071C6.31737 23 6 23.2236 6 23.5C6 23.7764 6.31737 24 6.7071 24H20.2929C20.6835 24 21 23.7764 21 23.5C21 23.2236 20.6835 23 20.2933 23Z" fill="#029889"/>
</svg>
