<svg width="70" height="70" viewBox="0 0 70 70" fill="none" xmlns="http://www.w3.org/2000/svg">
<path fill-rule="evenodd" clip-rule="evenodd" d="M0 34.9984C0 15.7018 15.7018 0 35 0C54.299 0 70 15.7018 70 34.9984C70 54.2982 54.2982 70 35 70C15.7018 70 0 54.299 0 34.9984ZM2.47644 34.9984C2.47644 52.9324 17.066 67.5236 35 67.5236C52.934 67.5236 67.5236 52.9332 67.5236 34.9984C67.5236 17.066 52.934 2.47644 35 2.47644C17.066 2.47644 2.47644 17.0652 2.47644 34.9984Z" fill="#029889"/>
<path d="M50.1123 20.8258C49.536 20.4556 48.7707 20.6228 48.402 21.1976L33.5488 44.3054C33.226 44.8063 32.8021 45.1003 32.3557 45.1314C31.9053 45.1594 31.4503 44.93 31.0607 44.475L22.2477 34.1943C21.8036 33.6771 21.0219 33.6156 20.5023 34.0605C19.9836 34.5046 19.9237 35.2871 20.3678 35.8058L29.1808 46.0873C30.0185 47.0626 31.1346 47.6094 32.2787 47.6094C32.3611 47.6094 32.4428 47.6071 32.5252 47.6001C33.7541 47.5153 34.885 46.8021 35.6309 45.6424L50.4833 22.537C50.8543 21.9614 50.6871 21.1961 50.1123 20.8258Z" fill="#029889"/>
</svg>
