<svg width="85" height="70" viewBox="0 0 85 70" fill="none" xmlns="http://www.w3.org/2000/svg">
<path fill-rule="evenodd" clip-rule="evenodd" d="M80.4043 3.81537C77.1583 2.07546 71.8599 0 65.0477 0C55.3378 0 46.0747 4.15657 42.9061 5.73531C42.6823 5.84747 42.3187 5.84747 42.0948 5.73531C38.9262 4.15563 29.6622 0 19.9523 0C13.141 0 7.84172 2.07546 4.59661 3.81631C2.10422 5.15377 1.32506 5.79657 1.19283 5.91062C0.491111 6.52798 0 7.61283 0 8.54688V66.7341C0 68.7248 1.11917 69.6154 2.22889 69.6154C2.58683 69.6154 3.11572 69.5184 3.67956 69.0829L6.01517 67.8312C8.95711 66.2525 13.7634 64.3721 19.9514 64.3721C26.7391 64.3721 33.4031 66.5871 37.8004 68.4448L40.2919 69.4976C40.9133 69.8228 41.6934 70 42.5009 70C43.3075 70 44.0867 69.8228 44.7072 69.4976L47.1948 68.4467C51.5922 66.588 58.259 64.3721 65.0477 64.3721C71.2366 64.3721 76.0429 66.2525 78.9848 67.8312L81.3214 69.0829C81.8843 69.5193 82.4141 69.6154 82.7721 69.6154C83.8818 69.6154 85 68.7257 85 66.7341V8.54688C85 7.61283 84.5089 6.52986 83.8081 5.91156C83.6778 5.79657 82.8977 5.15282 80.4043 3.81537ZM40.9964 66.0828C40.9964 66.3335 40.8094 66.457 40.5771 66.3599L38.9734 65.6813C34.3202 63.7161 27.2444 61.3702 19.9514 61.3702C13.1382 61.3702 7.837 63.4466 4.59094 65.1884L3.40756 65.8208C3.1875 65.9405 3.00711 65.834 3.00711 65.5824V8.55914C3.01561 8.45546 3.11856 8.22831 3.16294 8.17741L3.16466 8.17606C3.20346 8.14523 3.88555 7.60327 6.02083 6.45823C8.96183 4.88138 13.7662 3.00102 19.9523 3.00102C28.7782 3.00102 37.4954 6.83336 40.5894 8.34612C40.8151 8.4564 40.9974 8.75141 40.9974 9.00307V66.0828H40.9964ZM81.5906 65.8208C81.8134 65.9405 81.9929 65.834 81.9929 65.5824V8.545C81.9853 8.45452 81.8814 8.22831 81.8087 8.15102C81.8086 8.15094 81.8071 8.14985 81.8044 8.14774C81.7435 8.10115 81.0331 7.55748 78.9801 6.45729C76.0401 4.88043 71.2357 3.00008 65.0477 3.00008C56.2228 3.00008 47.5056 6.83336 44.4116 8.34518C44.1849 8.45452 44.0026 8.74953 44.0026 9.00213V66.0819C44.0026 66.3326 44.1906 66.457 44.4219 66.359L46.0199 65.6832C50.6742 63.7152 57.7537 61.3692 65.0467 61.3692C71.8609 61.3692 77.1611 63.4456 80.4081 65.1874L81.5906 65.8208Z" fill="#029889"/>
</svg>
