<svg width="70" height="70" viewBox="0 0 70 70" fill="none" xmlns="http://www.w3.org/2000/svg">
<path fill-rule="evenodd" clip-rule="evenodd" d="M35 70C54.299 70 70 54.2982 70 35C70 15.7018 54.299 0 35 0C15.701 0 0 15.7018 0 35C0 54.2982 15.7018 70 35 70ZM43.9872 66.2503C47.4242 63.21 50.2934 58.4842 52.2402 52.6937C55.2572 53.2264 58.1303 53.9054 60.8409 54.7182C56.6557 60.1914 50.7726 64.2958 43.9872 66.2503ZM52.9768 50.3074C56.2691 50.9001 59.3997 51.6639 62.3381 52.584C65.4033 47.8349 67.2653 42.2442 67.4917 36.2374H54.9764C54.8753 41.2673 54.1699 46.0304 52.9768 50.3074ZM67.4917 33.7618H54.9772C54.8761 28.7319 54.1707 23.968 52.9768 19.691C56.2699 19.0991 59.4004 18.3346 62.3389 17.4137C65.4033 22.1636 67.2653 27.7558 67.4917 33.7618ZM52.2402 17.304C55.2572 16.7728 58.1311 16.0938 60.8409 15.281C56.6549 9.807 50.7718 5.70344 43.9857 3.74811C47.4234 6.78844 50.2934 11.5142 52.2402 17.304ZM36.2382 2.56589C41.958 3.31178 46.9272 9.17467 49.8252 17.7022C45.5047 18.3392 40.9383 18.6822 36.2382 18.7351V2.56589ZM50.5618 20.09C46.0087 20.7799 41.1958 21.1571 36.2382 21.2108V33.7618H52.5016C52.402 28.8486 51.7121 24.2146 50.5618 20.09ZM36.2382 36.2382H52.5016C52.402 41.1499 51.7121 45.7847 50.5618 49.91C46.0087 49.2178 41.1958 48.8437 36.2382 48.7877V36.2382ZM49.8244 52.297C45.5047 51.6592 40.9383 51.3162 36.2382 51.2641V67.4326C41.9588 66.6867 46.9272 60.8253 49.8244 52.297ZM33.7618 67.4326C28.042 66.6867 23.0728 60.8253 20.1748 52.297C24.4953 51.6592 29.0617 51.3162 33.7618 51.2641V67.4326ZM19.4382 49.91C23.9913 49.2186 28.8042 48.8437 33.7618 48.7877V36.2382H17.4977C17.598 41.1499 18.2879 45.7847 19.4382 49.91ZM33.7618 33.7618H17.4977C17.598 28.8486 18.2879 24.2146 19.4382 20.09C23.9913 20.7799 28.805 21.1571 33.7618 21.2108V33.7618ZM33.7618 18.7359V2.56589C28.042 3.31178 23.072 9.17467 20.1748 17.703C24.4953 18.34 29.0617 18.683 33.7618 18.7359ZM26.0143 3.74811C22.5766 6.78844 19.7073 11.5142 17.7606 17.304C14.7428 16.7736 11.8697 16.0938 9.15833 15.281C13.3451 9.807 19.2282 5.70344 26.0143 3.74811ZM17.024 19.6918C13.7309 19.0999 10.6003 18.3353 7.66189 17.4152C4.59589 22.1636 2.73389 27.7558 2.50756 33.7626H15.0243C15.1247 28.7327 15.8301 23.9688 17.024 19.6918ZM2.50756 36.2382H15.0243C15.1247 41.2681 15.8301 46.0312 17.024 50.3074C13.7309 50.8993 10.5996 51.6647 7.66111 52.5848C4.59589 47.8349 2.73389 42.2434 2.50756 36.2382ZM26.0136 66.2503C22.5758 63.21 19.7066 58.4834 17.7606 52.6937C14.7428 53.2264 11.8697 53.9054 9.15833 54.7182C13.3443 60.1914 19.2267 64.2958 26.0136 66.2503Z" fill="#029889"/>
</svg>
