<svg width="70" height="70" viewBox="0 0 70 70" fill="none" xmlns="http://www.w3.org/2000/svg">
<path fill-rule="evenodd" clip-rule="evenodd" d="M43.5836 15.9972C44.9751 14.605 46.8246 13.8389 48.794 13.8389C50.7618 13.8389 52.6113 14.605 54.0012 15.9964C56.8728 18.8695 56.8728 23.5432 54.0004 26.4155C52.6098 27.807 50.7602 28.5731 48.7916 28.5731C46.8246 28.5731 44.9751 27.807 43.5836 26.4155C40.7113 23.5424 40.7121 18.8688 43.5836 15.9972ZM48.7924 26.0982C50.0983 26.0982 51.3272 25.5895 52.2504 24.6648C54.1568 22.7576 54.1575 19.6551 52.2512 17.7472C51.3288 16.8232 50.1006 16.3145 48.7948 16.3145C47.4881 16.3145 46.2592 16.824 45.3352 17.7488C43.4281 19.6559 43.4281 22.7576 45.3352 24.6648C46.2584 25.588 47.4865 26.0982 48.7924 26.0982Z" fill="#029889"/>
<path fill-rule="evenodd" clip-rule="evenodd" d="M67.9683 4.96456C67.9908 5.012 68.494 6.13978 68.9187 7.51489C73.744 23.1599 61.5641 36.2631 49.1779 45.0707L52.8156 55.9868C53.2706 57.3463 52.8475 59.1376 51.8317 60.1518L43.1673 68.817C42.3981 69.587 41.4888 69.9977 40.5936 69.9977C40.3712 69.9977 40.1503 69.972 39.9333 69.9207C38.8374 69.6617 37.9632 68.775 37.5338 67.487L33.2265 54.5642C30.5867 55.9152 29.5165 56.3508 29.4535 56.3757C28.9083 56.5958 28.3024 56.7054 27.6506 56.7054C26.2039 56.7054 24.7378 56.1384 23.8232 55.2246L14.7706 46.1728C13.4056 44.8086 12.9008 42.3352 13.6203 40.5417L13.6218 40.5379C13.6602 40.4446 14.1054 39.3623 15.4309 36.7702L2.50972 32.4621C1.22249 32.0336 0.335828 31.1586 0.0768284 30.0634C-0.182172 28.9676 0.220717 27.7877 1.17894 26.8279L9.84649 18.1634C10.8592 17.15 12.6512 16.7261 14.0107 17.1788L24.9369 20.8234C32.3009 10.4977 42.8795 0 55.4655 0C57.8113 0 60.1804 0.366333 62.5091 1.08656C63.8414 1.49983 64.9305 1.9826 65.0267 2.02526L65.0322 2.02767C66.1887 2.548 67.4503 3.80956 67.9683 4.96456ZM2.48561 29.4933C2.54161 29.7321 2.84338 29.9639 3.29138 30.1132L16.5906 34.5473C17.0021 33.7727 17.4594 32.9233 17.9813 31.9706C19.4606 29.2678 21.3047 26.1497 23.4677 22.9421L13.2291 19.5269C12.7593 19.369 11.9488 19.5611 11.5973 19.9127L2.92972 28.5787C2.59605 28.9131 2.42883 29.2553 2.48561 29.4933ZM50.4675 56.77C50.6246 57.2413 50.4341 58.0494 50.0817 58.401L41.4149 67.0662C41.0805 67.4022 40.7375 67.5687 40.5003 67.5103C40.2623 67.4551 40.0305 67.1526 39.8812 66.7046L35.4478 53.4038C36.2116 52.9986 37.0508 52.5474 37.9896 52.0326C40.7741 50.5097 43.8914 48.6671 47.0569 46.5376L50.4675 56.77ZM28.5295 54.0781C28.5505 54.0703 30.7788 53.158 36.8012 49.8626C50.4107 42.4177 72.3728 27.1118 66.5527 8.24678C66.1732 7.01556 65.715 5.98889 65.7096 5.978C65.4405 5.37833 64.6176 4.557 64.0179 4.28556L64.0132 4.2835C63.9367 4.24988 62.9485 3.81574 61.7756 3.45256C59.6849 2.80467 57.5616 2.47644 55.4655 2.47644C39.3569 2.47644 26.4264 21.6984 20.1521 33.159C16.9063 39.0886 15.9609 41.3619 15.9185 41.4638L15.9171 41.4672C15.5647 42.3438 15.8533 43.7539 16.5214 44.4212L25.5724 53.4722C26.0243 53.9249 26.8596 54.2298 27.649 54.2298C27.9788 54.2298 28.2829 54.1784 28.5295 54.0781Z" fill="#029889"/>
<path d="M22.1339 59.6129C19.3705 60.9911 11.588 63.9646 8.81058 61.1856C6.03314 58.4089 9.00425 50.6257 10.3832 47.8622C10.6889 47.2494 10.44 46.5066 9.82869 46.2017C9.21658 45.8952 8.47458 46.1434 8.16891 46.7539C7.57858 47.9354 2.53469 58.4136 7.05825 62.9371C8.43491 64.313 10.3622 64.8038 12.4117 64.8038C17.097 64.8038 22.4194 62.2371 23.2407 61.8272C23.8512 61.5208 24.0994 60.778 23.7937 60.1675C23.4896 59.5569 22.7468 59.3111 22.1339 59.6129Z" fill="#029889"/>
</svg>
