<svg width="40" height="40" viewBox="0 0 40 40" fill="none" xmlns="http://www.w3.org/2000/svg">
<path fill-rule="evenodd" clip-rule="evenodd" d="M24.9027 9.14154C25.6978 8.34598 26.7547 7.9082 27.88 7.9082C29.0045 7.9082 30.0614 8.34598 30.8556 9.14109C32.4965 10.7829 32.4965 13.4535 30.8552 15.0949C30.0605 15.89 29.0036 16.3278 27.8787 16.3278C26.7547 16.3278 25.6978 15.89 24.9027 15.0949C23.2614 13.4531 23.2618 10.7824 24.9027 9.14154ZM27.8792 14.9135C28.6254 14.9135 29.3276 14.6229 29.8552 14.0944C30.9445 13.0046 30.9449 11.2318 29.8556 10.1415C29.3285 9.61354 28.6267 9.32287 27.8805 9.32287C27.1338 9.32287 26.4316 9.61398 25.9036 10.1424C24.8138 11.2322 24.8138 13.0046 25.9036 14.0944C26.4312 14.622 27.1329 14.9135 27.8792 14.9135Z" fill="#029889"/>
<path fill-rule="evenodd" clip-rule="evenodd" d="M38.839 2.83689C38.8519 2.864 39.1395 3.50844 39.3821 4.29422C42.1395 13.2342 35.1795 20.7218 28.1017 25.7547L30.1803 31.9924C30.4403 32.7693 30.1986 33.7929 29.6181 34.3724L24.667 39.324C24.2275 39.764 23.7079 39.9987 23.1963 39.9987C23.0692 39.9987 22.943 39.984 22.819 39.9547C22.1928 39.8067 21.6932 39.3 21.4479 38.564L18.9866 31.1796C17.4781 31.9516 16.8666 32.2004 16.8306 32.2147C16.519 32.3404 16.1728 32.4031 15.8003 32.4031C14.9737 32.4031 14.1359 32.0791 13.6132 31.5569L8.44035 26.3844C7.66035 25.6049 7.3719 24.1916 7.78301 23.1667L7.7839 23.1645C7.80585 23.1112 8.06026 22.4927 8.81768 21.0116L1.43412 18.5498C0.698569 18.3049 0.191902 17.8049 0.0439019 17.1791C-0.104098 16.5529 0.126124 15.8787 0.67368 15.3302L5.62657 10.3791C6.20524 9.8 7.22924 9.55778 8.00612 9.81644L14.2497 11.8991C18.4577 5.99867 24.5026 0 31.6946 0C33.035 0 34.3888 0.209333 35.7195 0.620889C36.4808 0.857059 37.1032 1.13295 37.1581 1.1573L37.1612 1.15867C37.8221 1.456 38.543 2.17689 38.839 2.83689ZM1.42035 16.8533C1.45235 16.9898 1.62479 17.1222 1.88079 17.2076L9.48035 19.7413C9.71546 19.2987 9.97679 18.8133 10.275 18.2689C11.1203 16.7244 12.1741 14.9427 13.4101 13.1098L7.55946 11.1582C7.29101 11.068 6.8279 11.1778 6.62701 11.3787L1.67412 16.3307C1.48346 16.5218 1.3879 16.7173 1.42035 16.8533ZM28.8386 32.44C28.9283 32.7093 28.8195 33.1711 28.6181 33.372L23.6657 38.3236C23.4746 38.5156 23.2786 38.6107 23.143 38.5773C23.007 38.5458 22.8746 38.3729 22.7892 38.1169L20.2559 30.5164C20.6923 30.2849 21.1719 30.0271 21.7083 29.7329C23.2995 28.8627 25.0808 27.8098 26.8897 26.5929L28.8386 32.44ZM16.3026 30.9018C16.3146 30.8973 17.5879 30.376 21.0292 28.4929C28.8061 24.2387 41.3559 15.4924 38.0301 4.71244C37.8132 4.00889 37.5515 3.42222 37.5483 3.416C37.3946 3.07333 36.9243 2.604 36.5817 2.44889L36.579 2.44771C36.5352 2.42846 35.9705 2.1804 35.3003 1.97289C34.1057 1.60267 32.8923 1.41511 31.6946 1.41511C22.4897 1.41511 15.1008 12.3991 11.5155 18.948C9.66066 22.3365 9.12045 23.6355 9.09628 23.6936L9.09546 23.6956C8.89412 24.1964 9.05901 25.0022 9.44079 25.3836L14.6128 30.5556C14.871 30.8142 15.3483 30.9884 15.7995 30.9884C15.9879 30.9884 16.1617 30.9591 16.3026 30.9018Z" fill="#029889"/>
<path d="M12.6502 34.0643C11.0711 34.8519 6.62396 36.551 5.03685 34.963C3.44974 33.3763 5.14752 28.9288 5.93552 27.3496C6.11018 26.9994 5.96796 26.575 5.61863 26.4008C5.26885 26.2256 4.84485 26.3674 4.67018 26.7163C4.33285 27.3914 1.45063 33.379 4.03552 35.9639C4.82218 36.7501 5.92352 37.0305 7.09463 37.0305C9.77196 37.0305 12.8133 35.5639 13.2826 35.3296C13.6315 35.1545 13.7733 34.7301 13.5986 34.3812C13.4248 34.0323 13.0004 33.8919 12.6502 34.0643Z" fill="#029889"/>
</svg>
