<svg width="38" height="40" viewBox="0 0 38 40" fill="none" xmlns="http://www.w3.org/2000/svg">
<path fill-rule="evenodd" clip-rule="evenodd" d="M4.49173 22.9556H2.987C1.33988 22.9556 0 21.6293 0 20V17.7778C0 16.148 1.33988 14.8222 2.987 14.8222H4.49173V0.733333C4.49173 0.328444 4.82366 0 5.23286 0C5.64206 0 5.97355 0.328444 5.97355 0.733333V14.8218H7.47872C9.12584 14.8218 10.4657 16.1476 10.4657 17.7773V19.9996C10.4657 21.6293 9.12584 22.9556 7.47872 22.9556H5.97355V39.2667C5.97355 39.672 5.64206 40 5.23286 40C4.82366 40 4.49173 39.672 4.49173 39.2667V22.9556ZM2.987 16.2889C2.15693 16.2889 1.48227 16.9569 1.48227 17.7778V20C1.48227 20.8213 2.15693 21.4889 2.987 21.4889H7.47872C8.30834 21.4889 8.98345 20.8213 8.98345 20V17.7778C8.98345 16.9569 8.30834 16.2889 7.47872 16.2889H2.987Z" fill="#30AA9F"/>
<path fill-rule="evenodd" clip-rule="evenodd" d="M17.9687 31.8444H16.464C14.8169 31.8444 13.4766 30.5182 13.4766 28.8893V26.6667C13.4766 25.0364 14.8169 23.7111 16.464 23.7111H17.9687V0.733333C17.9687 0.328444 18.3007 0 18.7099 0C19.1195 0 19.451 0.328444 19.451 0.733333V23.7111H20.9557C22.6029 23.7111 23.9427 25.0364 23.9427 26.6667V28.8893C23.9427 30.5182 22.6029 31.8444 20.9557 31.8444H19.451V39.2667C19.451 39.672 19.1195 40 18.7099 40C18.3007 40 17.9687 39.672 17.9687 39.2667V31.8444ZM16.464 25.1778C15.6339 25.1778 14.9593 25.8453 14.9593 26.6667V28.8893C14.9593 29.7102 15.6339 30.3778 16.464 30.3778H20.9557C21.7858 30.3778 22.4605 29.7102 22.4605 28.8893V26.6667C22.4605 25.8453 21.7858 25.1778 20.9557 25.1778H16.464Z" fill="#30AA9F"/>
<path fill-rule="evenodd" clip-rule="evenodd" d="M31.4409 16.2884H29.9362C28.2891 16.2884 26.9492 14.9631 26.9492 13.3333V11.1111C26.9492 9.48133 28.2891 8.15556 29.9362 8.15556H31.4409V0.733333C31.4409 0.328444 31.7724 0 32.1821 0C32.5917 0 32.9232 0.328444 32.9232 0.733333V8.15511H34.4279C36.0751 8.15511 37.4149 9.48089 37.4149 11.1107V13.3329C37.4149 14.9627 36.0751 16.2884 34.4279 16.2884H32.9232V39.2662C32.9232 39.6716 32.5917 39.9996 32.1821 39.9996C31.7724 39.9996 31.4409 39.6716 31.4409 39.2662V16.2884ZM29.9362 9.62222C29.1066 9.62222 28.4315 10.2898 28.4315 11.1111V13.3333C28.4315 14.1542 29.1066 14.8222 29.9362 14.8222H34.4279C35.258 14.8222 35.9327 14.1542 35.9327 13.3333V11.1111C35.9327 10.2898 35.258 9.62222 34.4279 9.62222H29.9362Z" fill="#30AA9F"/>
</svg>
