<svg width="65" height="70" viewBox="0 0 65 70" fill="none" xmlns="http://www.w3.org/2000/svg">
<path fill-rule="evenodd" clip-rule="evenodd" d="M7.80312 40.1722H5.18908C2.32767 40.1722 0 37.8513 0 35V31.1111C0 28.259 2.32767 25.9389 5.18908 25.9389H7.80312V1.28333C7.80312 0.574778 8.37977 0 9.09064 0C9.8015 0 10.3774 0.574778 10.3774 1.28333V25.9381H12.9922C15.8536 25.9381 18.1813 28.2582 18.1813 31.1103V34.9992C18.1813 37.8513 15.8536 40.1722 12.9922 40.1722H10.3774V68.7167C10.3774 69.426 9.8015 70 9.09064 70C8.37977 70 7.80312 69.426 7.80312 68.7167V40.1722ZM5.18908 28.5056C3.74706 28.5056 2.57503 29.6746 2.57503 31.1111V35C2.57503 36.4373 3.74706 37.6056 5.18908 37.6056H12.9922C14.4334 37.6056 15.6062 36.4373 15.6062 35V31.1111C15.6062 29.6746 14.4334 28.5056 12.9922 28.5056H5.18908ZM31.2125 55.7278H28.5984C25.737 55.7278 23.4086 53.4069 23.4086 50.5563V46.6667C23.4086 43.8138 25.737 41.4944 28.5984 41.4944H31.2125V1.28333C31.2125 0.574778 31.7891 0 32.5 0C33.2116 0 33.7875 0.574778 33.7875 1.28333V41.4944H36.4016C39.263 41.4944 41.5906 43.8138 41.5906 46.6667V50.5563C41.5906 53.4069 39.263 55.7278 36.4016 55.7278H33.7875V68.7167C33.7875 69.426 33.2116 70 32.5 70C31.7891 70 31.2125 69.426 31.2125 68.7167V55.7278ZM28.5984 44.0611C27.1564 44.0611 25.9844 45.2293 25.9844 46.6667V50.5563C25.9844 51.9929 27.1564 53.1611 28.5984 53.1611H36.4016C37.8436 53.1611 39.0156 51.9929 39.0156 50.5563V46.6667C39.0156 45.2293 37.8436 44.0611 36.4016 44.0611H28.5984ZM52.0078 28.5048H54.6218V68.7159C54.6218 69.4252 55.1977 69.9992 55.9094 69.9992C56.621 69.9992 57.1969 69.4252 57.1969 68.7159V28.5048H59.8109C62.6723 28.5048 65 26.1847 65 23.3326V19.4437C65 16.5916 62.6723 14.2714 59.8109 14.2714H57.1969V1.28333C57.1969 0.574778 56.621 0 55.9094 0C55.1977 0 54.6218 0.574778 54.6218 1.28333V14.2722H52.0078C49.1464 14.2722 46.8187 16.5923 46.8187 19.4444V23.3333C46.8187 26.1854 49.1464 28.5048 52.0078 28.5048ZM49.3938 19.4444C49.3938 18.0071 50.5666 16.8389 52.0078 16.8389H59.8109C61.2529 16.8389 62.425 18.0071 62.425 19.4444V23.3333C62.425 24.7699 61.2529 25.9389 59.8109 25.9389H52.0078C50.5666 25.9389 49.3938 24.7699 49.3938 23.3333V19.4444Z" fill="#30AA9F"/>
</svg>
