<svg width="40" height="40" viewBox="0 0 40 40" fill="none" xmlns="http://www.w3.org/2000/svg">
<path fill-rule="evenodd" clip-rule="evenodd" d="M0 19.9991C0 8.97244 8.97244 0 20 0C31.028 0 40 8.97244 40 19.9991C40 31.0276 31.0276 40 20 40C8.97244 40 0 31.028 0 19.9991ZM1.41511 19.9991C1.41511 30.2471 9.752 38.5849 20 38.5849C30.248 38.5849 38.5849 30.2476 38.5849 19.9991C38.5849 9.752 30.248 1.41511 20 1.41511C9.752 1.41511 1.41511 9.75155 1.41511 19.9991Z" fill="#2FAA9F"/>
<path d="M28.6356 11.9006C28.3063 11.6891 27.869 11.7846 27.6583 12.1131L19.1707 25.3175C18.9863 25.6037 18.7441 25.7717 18.489 25.7895C18.2316 25.8055 17.9716 25.6744 17.749 25.4144L12.713 19.5397C12.4592 19.2442 12.0125 19.2091 11.7156 19.4633C11.4192 19.7171 11.385 20.1642 11.6387 20.4606L16.6747 26.3357C17.1534 26.8931 17.7912 27.2055 18.445 27.2055C18.4921 27.2055 18.5387 27.2042 18.5859 27.2002C19.2881 27.1517 19.9343 26.7442 20.3605 26.0815L28.8476 12.8784C29.0596 12.5495 28.9641 12.1122 28.6356 11.9006Z" fill="#2FAA9F"/>
</svg>
