<svg width="50" height="50" viewBox="0 0 50 50" fill="none" xmlns="http://www.w3.org/2000/svg">
<path fill-rule="evenodd" clip-rule="evenodd" d="M25 50C38.8071 50 50 38.8071 50 25C50 11.1929 38.8071 0 25 0C11.1929 0 0 11.1929 0 25C0 38.8071 11.1929 50 25 50Z" fill="url(#paint0_linear)"/>
<path d="M35.989 32.1515C36.0378 32.5251 35.924 32.8499 35.6482 33.126L32.4098 36.342C32.2637 36.5044 32.073 36.6426 31.8377 36.7562C31.6023 36.8699 31.371 36.943 31.1438 36.9755C31.1276 36.9755 31.0788 36.9797 30.9976 36.9878C30.9166 36.9959 30.811 37 30.6812 37C30.3727 37 29.8735 36.9472 29.1836 36.8416C28.4938 36.736 27.6497 36.476 26.6515 36.0619C25.6531 35.6477 24.5209 35.0264 23.2548 34.1981C21.9887 33.3698 20.6414 32.2327 19.213 30.787C18.0767 29.6663 17.1352 28.5943 16.3885 27.571C15.6419 26.5476 15.0413 25.6015 14.5868 24.7325C14.1322 23.8635 13.7913 23.0757 13.5641 22.3692C13.3368 21.6626 13.1826 21.0535 13.1015 20.5418C13.0203 20.0302 12.9878 19.6282 13.0041 19.3358C13.0203 19.0434 13.0284 18.881 13.0284 18.8485C13.0609 18.6211 13.1339 18.3896 13.2475 18.1541C13.3612 17.9186 13.4991 17.7277 13.6615 17.5816L16.8998 14.3411C17.1271 14.1137 17.3868 14 17.679 14C17.89 14 18.0767 14.0609 18.239 14.1827C18.4013 14.3046 18.5393 14.4548 18.6529 14.6335L21.2582 19.5794C21.4043 19.8393 21.4449 20.1236 21.3799 20.4322C21.315 20.7408 21.177 21.0007 20.966 21.2119L19.7729 22.4057C19.7405 22.4382 19.7121 22.491 19.6877 22.5641C19.6634 22.6372 19.6512 22.6981 19.6512 22.7468C19.7161 23.0879 19.8622 23.4777 20.0895 23.9163C20.2843 24.3061 20.5846 24.7812 20.9904 25.3416C21.3962 25.902 21.9724 26.5476 22.7191 27.2785C23.4496 28.0258 24.0989 28.6064 24.667 29.0207C25.235 29.4347 25.71 29.7394 26.0914 29.9343C26.4729 30.1292 26.7651 30.247 26.9679 30.2875L27.2722 30.3484C27.3047 30.3484 27.3575 30.3362 27.4305 30.3119C27.5035 30.2875 27.5563 30.2591 27.5888 30.2265L28.9766 28.8134C29.269 28.5536 29.6097 28.4236 29.9993 28.4236C30.2753 28.4236 30.4944 28.4723 30.6567 28.5698H30.681L35.3802 31.3473C35.7212 31.5587 35.9241 31.8266 35.989 32.1515Z" fill="white"/>
<defs>
<linearGradient id="paint0_linear" x1="35.2221" y1="57.7255" x2="58.8342" y2="15.4014" gradientUnits="userSpaceOnUse">
<stop stop-color="#FEB300"/>
<stop offset="1" stop-color="#FDC231"/>
</linearGradient>
</defs>
</svg>
