<svg width="64" height="70" viewBox="0 0 64 70" fill="none" xmlns="http://www.w3.org/2000/svg">
<path fill-rule="evenodd" clip-rule="evenodd" d="M49.024 10.9177H55.2508C60.0754 10.9177 64.0008 14.8384 64 19.6576V61.2593C64 66.0784 60.0746 70 55.2508 70H23.7261C18.9014 70 14.9768 66.0784 14.976 61.2586V59.0831H8.74925C3.92541 59.0831 0 55.1608 0 50.3417V8.74067C0 3.92156 3.92541 0 8.75003 0H40.2747C45.0993 0 49.024 3.92156 49.024 8.74067V10.9177ZM2.47965 50.3417C2.47965 53.7958 5.2933 56.6059 8.75003 56.6059H40.2747C43.7338 56.6059 46.5459 53.795 46.5459 50.3417V8.74067C46.5459 5.28578 43.733 2.47567 40.2747 2.47567H8.75003C5.29252 2.47567 2.47965 5.28656 2.47965 8.74067V50.3417ZM61.5211 61.2593C61.5211 64.7134 58.7083 67.5243 55.2508 67.5243H23.7261C20.2678 67.5243 17.4541 64.7142 17.4541 61.2593V59.0839H40.2747C45.0993 59.0839 49.024 55.1616 49.024 50.3424V13.3941H55.2508C58.7075 13.3941 61.5211 16.2042 61.5211 19.6583V61.2593ZM12.5976 28.3041H36.4272C37.1115 28.3041 37.6666 28.8579 37.6666 29.5423C37.6666 30.2252 37.1115 30.7798 36.4264 30.7798H12.5976C11.914 30.7798 11.3574 30.2252 11.3574 29.5423C11.3574 28.8579 11.914 28.3041 12.5976 28.3041ZM36.4272 16.1739H12.5976C11.914 16.1739 11.3574 16.7284 11.3574 17.4113C11.3574 18.0958 11.914 18.6496 12.5976 18.6496H36.4264C37.1115 18.6496 37.6666 18.0958 37.6666 17.4113C37.6666 16.7284 37.1115 16.1739 36.4272 16.1739ZM12.5976 40.4336H36.4272C37.1115 40.4336 37.6666 40.9873 37.6666 41.6718C37.6666 42.3562 37.1115 42.91 36.4264 42.91H12.5976C11.914 42.91 11.3574 42.3562 11.3574 41.6718C11.3574 40.9873 11.914 40.4336 12.5976 40.4336Z" fill="#029889"/>
</svg>
