<svg width="27" height="27" viewBox="0 0 27 27" fill="none" xmlns="http://www.w3.org/2000/svg">
<path fill-rule="evenodd" clip-rule="evenodd" d="M20.2036 19.0616L26.7665 25.6231C27.0778 25.9344 27.0778 26.4492 26.7665 26.7605C26.6108 26.9222 26.4012 27 26.1976 27C25.994 27 25.7844 26.9162 25.6287 26.7605L19.0659 20.1991C17.0419 21.9592 14.4012 23.0248 11.515 23.0248C5.16766 23.0248 0 17.8583 0 11.5124C0 5.16652 5.16168 0 11.515 0C17.8623 0 23.0299 5.16053 23.0299 11.5124C23.0299 14.398 21.9641 17.0381 20.2036 19.0616ZM11.509 1.61641C6.05389 1.61641 1.61078 6.05255 1.61078 11.5124C1.61078 16.9723 6.05389 21.4144 11.509 21.4144C16.9701 21.4144 21.4072 16.9663 21.4072 11.5124C21.4072 6.05854 16.9701 1.61641 11.509 1.61641Z" fill="#818EA6"/>
</svg>
