<svg xmlns="http://www.w3.org/2000/svg" width="22" height="19" viewBox="0 0 22 19">
    <path fill="#58A7DE" fill-rule="nonzero" d="M14.7.004V0h1.031l.377.077c.251.05.48.116.685.198.205.081.403.176.595.285.192.108.365.219.521.331.155.111.294.23.417.354.122.126.312.159.57.098.257-.061.535-.146.833-.254.297-.109.591-.231.882-.367.291-.135.469-.221.532-.258l.1-.061.003-.006.02-.01.02-.01.02-.01.02-.01.003-.007.006-.004.006-.004.004-.006.02-.006.02-.004-.004.03-.006.03-.01.031-.01.03-.01.021-.01.02-.01.03a.723.723 0 0 0-.02.082c-.006.034-.069.17-.188.407a5.11 5.11 0 0 1-.446.723 3.523 3.523 0 0 1-.48.553 4.61 4.61 0 0 0-.284.265.857.857 0 0 1-.168.142l-.1.067-.02.01-.02.01-.003.007-.006.004-.006.004-.004.006-.02.01-.02.01-.004.006-.006.004-.006.004-.004.007-.004.006-.006.004-.006.004-.004.006h.1l.555-.122c.37-.082.724-.18 1.061-.295l.536-.183.06-.02.03-.01.02-.011.019-.01.02-.01.02-.01.04-.007.039-.004v.04l-.01.005-.01.006-.004.006-.006.004-.006.004-.004.006-.004.007-.006.004-.006.004-.004.006-.003.006-.006.004-.01.02-.01.02-.006.005-.252.346c-.165.228-.255.343-.268.346-.013.004-.032.024-.056.06-.022.039-.162.19-.42.454-.258.265-.51.5-.758.706a.972.972 0 0 0-.377.765c-.004.302-.019.642-.045 1.022-.027.38-.076.79-.15 1.231-.072.44-.184.94-.336 1.496a13.833 13.833 0 0 1-2.5 4.944c-.205.258-.464.548-.778.87l-.515.53c-.03.03-.16.141-.39.334-.227.194-.471.388-.733.582-.26.192-.5.353-.718.482-.219.129-.482.276-.79.441a9.281 9.281 0 0 1-.996.464c-.357.143-.734.275-1.13.397-.397.122-.78.217-1.151.285-.37.068-.79.125-1.26.173l-.704.071v.01h-1.29v-.01l-.168-.01a8.82 8.82 0 0 1-.278-.02 32.33 32.33 0 0 1-.823-.112c-.476-.068-.85-.136-1.12-.204a14.597 14.597 0 0 1-1.211-.386c-.536-.19-.994-.382-1.375-.576-.38-.193-.617-.315-.714-.366a5.037 5.037 0 0 1-.321-.188l-.179-.112-.004-.006-.006-.004-.006-.004-.004-.006-.02-.01-.02-.01-.003-.006-.006-.004-.006-.005-.004-.006-.004-.006-.006-.004H0v-.04l.02.004.02.006.089.01c.06.007.221.017.486.03a8.727 8.727 0 0 0 2.857-.335 7.997 7.997 0 0 0 1.166-.411c.353-.16.604-.28.754-.359a7.31 7.31 0 0 0 .678-.43l.457-.316.004-.006.006-.004.005-.005.004-.006.004-.006.006-.004.006-.004.004-.006.02-.006.02-.004.004-.02.006-.02.006-.005.004-.006-.159-.01a72.549 72.549 0 0 1-.307-.02 2.915 2.915 0 0 1-.467-.092 4.4 4.4 0 0 1-.684-.244 5.232 5.232 0 0 1-.714-.387 3.52 3.52 0 0 1-.502-.372 8.825 8.825 0 0 1-.397-.415 4.105 4.105 0 0 1-.42-.556 5.035 5.035 0 0 1-.342-.657l-.164-.37-.01-.03-.01-.031-.006-.02-.004-.021.03.004.03.006.218.03c.145.02.373.028.684.02.311-.006.526-.02.645-.04s.192-.034.218-.04l.04-.01.05-.01.049-.011.004-.006.006-.004.006-.004.004-.006-.04-.01-.04-.01-.04-.01-.039-.011-.04-.01a3.575 3.575 0 0 1-.138-.04 7.498 7.498 0 0 1-.536-.225 4.063 4.063 0 0 1-.694-.376 4.817 4.817 0 0 1-.492-.401 5.705 5.705 0 0 1-.51-.566 4.086 4.086 0 0 1-.496-.803 4.966 4.966 0 0 1-.327-.875 4.834 4.834 0 0 1-.143-.845L.853 6.43l.02.004.02.006.02.01.02.01.02.01.019.01.308.143c.205.095.46.177.763.244.304.068.486.106.546.112l.09.01h.178l-.004-.006-.006-.004-.006-.004-.004-.006-.004-.006-.006-.004-.006-.004-.004-.006-.02-.01-.02-.01-.004-.007-.006-.004-.006-.004-.004-.006-.02-.01-.02-.01-.003-.006-.17-.13a2.63 2.63 0 0 1-.342-.332 11.894 11.894 0 0 1-.357-.428c-.12-.15-.226-.31-.317-.478a5.866 5.866 0 0 1-.294-.647 4.682 4.682 0 0 1-.321-1.57 5.06 5.06 0 0 1 .02-.662c.02-.183.059-.39.118-.62.06-.231.146-.475.258-.733l.169-.387.01-.03.01-.03.006-.005.004-.006.004-.006.006-.004.006.004.004.006.003.006.006.004.006.004.004.006.004.007.006.004.01.02.01.02.006.004.004.006.268.306c.178.203.39.43.635.681.244.251.38.382.406.391.027.01.06.042.1.094.04.05.171.17.396.36.225.19.52.41.883.661.364.251.767.499 1.21.743.443.244.92.464 1.428.661.51.197.867.326 1.072.387.205.06.555.139 1.051.234.496.095.87.156 1.12.183.252.027.424.043.517.047l.139.004-.004-.03-.006-.031-.04-.255a4.903 4.903 0 0 1-.04-.712c0-.305.023-.587.07-.844.046-.258.115-.52.208-.784a4.24 4.24 0 0 1 .272-.637c.09-.158.207-.34.353-.543a4.349 4.349 0 0 1 1.359-1.21c.297-.17.572-.299.823-.387a3.76 3.76 0 0 1 .635-.173c.172-.027.258-.043.258-.047z"/>
</svg>
